<svg width="64" height="64" viewBox="0 0 64 64" fill="none" xmlns="http://www.w3.org/2000/svg">
<path opacity="0.5" d="M32 6L10 16V30C10 43 17 54 32 60C47 54 54 43 54 30V16L32 6Z" stroke="#D7D8FF" stroke-width="2.5" stroke-linejoin="round"/>
<path d="M32 12L16 20V32C16 42 21 50 32 54C43 50 48 42 48 32V20L32 12Z" stroke="#D7D8FF" stroke-width="3" stroke-linejoin="round"/>
<path d="M35 30H29C28.4477 30 28 30.4477 28 31V35C28 35.5523 28.4477 36 29 36H35C35.5523 36 36 35.5523 36 35V31C36 30.4477 35.5523 30 35 30Z" stroke="#D7D8FF" stroke-width="2"/>
<path d="M26 30V28C26 24.7 28.7 22 32 22C35.3 22 38 24.7 38 28V30" stroke="#D7D8FF" stroke-width="2" stroke-linecap="round"/>
</svg>
