<svg width="64" height="64" viewBox="0 0 64 64" fill="none" xmlns="http://www.w3.org/2000/svg">
<path d="M0 32C0 14.3269 14.3269 0 32 0C49.6731 0 64 14.3269 64 32C64 49.6731 49.6731 64 32 64C14.3269 64 0 49.6731 0 32Z" fill="url(#paint0_linear_908_8)"/>
<path d="M40 25.6H17.6C16.7163 25.6 16 26.3164 16 27.2V43.2C16 44.0837 16.7163 44.8 17.6 44.8H40C40.8837 44.8 41.6 44.0837 41.6 43.2V27.2C41.6 26.3164 40.8837 25.6 40 25.6Z" stroke="white" stroke-width="2"/>
<path opacity="0.6" d="M43.2 22.4H20.8C19.9163 22.4 19.2 23.1163 19.2 24V40C19.2 40.8837 19.9163 41.6 20.8 41.6H43.2C44.0837 41.6 44.8 40.8837 44.8 40V24C44.8 23.1163 44.0837 22.4 43.2 22.4Z" stroke="white" stroke-width="2"/>
<path opacity="0.3" d="M46.4 19.2H24C23.1163 19.2 22.4 19.9164 22.4 20.8V36.8C22.4 37.6837 23.1163 38.4 24 38.4H46.4C47.2837 38.4 48 37.6837 48 36.8V20.8C48 19.9164 47.2837 19.2 46.4 19.2Z" stroke="white" stroke-width="2"/>
<path d="M24 33.6L28.8 38.4L40 27.2" stroke="white" stroke-width="2" stroke-linecap="round" stroke-linejoin="round"/>
<defs>
<linearGradient id="paint0_linear_908_8" x1="32" y1="0" x2="32" y2="64" gradientUnits="userSpaceOnUse">
<stop stop-color="#10E887"/>
<stop offset="1" stop-color="#00825C"/>
</linearGradient>
</defs>
</svg>
