<svg width="64" height="64" viewBox="0 0 64 64" fill="none" xmlns="http://www.w3.org/2000/svg">
<path d="M0 32C0 14.3269 14.3269 0 32 0C49.6731 0 64 14.3269 64 32C64 49.6731 49.6731 64 32 64C14.3269 64 0 49.6731 0 32Z" fill="url(#paint0_linear_908_55)"/>
<path d="M25 17.125C19.75 17.125 18 18.875 18 24.125V38.125C18 43.375 19.75 45.125 25 45.125" stroke="white" stroke-width="2" stroke-linecap="round"/>
<path d="M39 17.125C44.25 17.125 46 18.875 46 24.125V38.125C46 43.375 44.25 45.125 39 45.125" stroke="white" stroke-width="2" stroke-linecap="round"/>
<path d="M30.2987 36.3938H28.3727L27.6071 34.402H24.1019L23.3782 36.3938H21.5L24.9154 27.625H26.7876L30.2987 36.3938ZM27.0388 32.9246L25.8306 29.6707L24.6462 32.9246H27.0388Z" fill="white"/>
<path d="M31.2438 36.3938V27.625H34.085C35.1616 27.625 35.8634 27.6689 36.1904 27.7566C36.6929 27.8882 37.1136 28.1753 37.4525 28.6179C37.7915 29.0566 37.9609 29.6248 37.9609 30.3226C37.9609 30.861 37.8632 31.3136 37.6678 31.6804C37.4725 32.0473 37.2232 32.3364 36.9202 32.5477C36.6211 32.7551 36.316 32.8927 36.005 32.9604C35.5823 33.0442 34.9702 33.0861 34.1687 33.0861H33.0143V36.3938H31.2438ZM33.0143 29.1084V31.5967H33.9833C34.6811 31.5967 35.1477 31.5508 35.3829 31.4591C35.6182 31.3674 35.8016 31.2238 35.9332 31.0284C36.0688 30.833 36.1366 30.6058 36.1366 30.3466C36.1366 30.0275 36.0429 29.7644 35.8555 29.557C35.6681 29.3497 35.4308 29.2201 35.1437 29.1682C34.9323 29.1283 34.5076 29.1084 33.8696 29.1084H33.0143Z" fill="white"/>
<path d="M39.3606 36.3938V27.625H41.1311V36.3938H39.3606Z" fill="white"/>
<path d="M32 22.375C32.9665 22.375 33.75 21.5915 33.75 20.625C33.75 19.6585 32.9665 18.875 32 18.875C31.0335 18.875 30.25 19.6585 30.25 20.625C30.25 21.5915 31.0335 22.375 32 22.375Z" fill="white"/>
<path d="M32 46.875C32.9665 46.875 33.75 46.0915 33.75 45.125C33.75 44.1585 32.9665 43.375 32 43.375C31.0335 43.375 30.25 44.1585 30.25 45.125C30.25 46.0915 31.0335 46.875 32 46.875Z" fill="white"/>
<defs>
<linearGradient id="paint0_linear_908_55" x1="32" y1="0" x2="32" y2="64" gradientUnits="userSpaceOnUse">
<stop stop-color="#10E887"/>
<stop offset="1" stop-color="#00825C"/>
</linearGradient>
</defs>
</svg>
