<svg width="64" height="64" viewBox="0 0 64 64" fill="none" xmlns="http://www.w3.org/2000/svg">
<path d="M0 32C0 14.3269 14.3269 0 32 0C49.6731 0 64 14.3269 64 32C64 49.6731 49.6731 64 32 64C14.3269 64 0 49.6731 0 32Z" fill="url(#paint0_linear_908_61)"/>
<path d="M32 14.25V19.85" stroke="white" stroke-width="2" stroke-linecap="round"/>
<path d="M32 16.35C33.1598 16.35 34.1 15.4098 34.1 14.25C34.1 13.0902 33.1598 12.15 32 12.15C30.8402 12.15 29.9 13.0902 29.9 14.25C29.9 15.4098 30.8402 16.35 32 16.35Z" fill="white"/>
<path d="M39 19.85H25C23.4536 19.85 22.2 21.1036 22.2 22.65V36.65C22.2 38.1964 23.4536 39.45 25 39.45H39C40.5464 39.45 41.8 38.1964 41.8 36.65V22.65C41.8 21.1036 40.5464 19.85 39 19.85Z" stroke="white" stroke-width="2"/>
<path d="M27.8 30.35C28.9598 30.35 29.9 29.4098 29.9 28.25C29.9 27.0902 28.9598 26.15 27.8 26.15C26.6402 26.15 25.7 27.0902 25.7 28.25C25.7 29.4098 26.6402 30.35 27.8 30.35Z" fill="white"/>
<path d="M36.2 30.35C37.3598 30.35 38.3 29.4098 38.3 28.25C38.3 27.0902 37.3598 26.15 36.2 26.15C35.0402 26.15 34.1 27.0902 34.1 28.25C34.1 29.4098 35.0402 30.35 36.2 30.35Z" fill="white"/>
<path d="M35.675 32.8H28.325C28.0351 32.8 27.8 33.1134 27.8 33.5V34.9C27.8 35.2866 28.0351 35.6 28.325 35.6H35.675C35.965 35.6 36.2 35.2866 36.2 34.9V33.5C36.2 33.1134 35.965 32.8 35.675 32.8Z" stroke="white"/>
<path d="M37.6 39.45H26.4C25.6268 39.45 25 40.0768 25 40.85V46.45C25 47.2232 25.6268 47.85 26.4 47.85H37.6C38.3732 47.85 39 47.2232 39 46.45V40.85C39 40.0768 38.3732 39.45 37.6 39.45Z" stroke="white" stroke-width="2"/>
<path d="M22.2 42.25H18" stroke="white" stroke-width="2" stroke-linecap="round"/>
<path d="M41.8 42.25H46" stroke="white" stroke-width="2" stroke-linecap="round"/>
<defs>
<linearGradient id="paint0_linear_908_61" x1="32" y1="0" x2="32" y2="64" gradientUnits="userSpaceOnUse">
<stop stop-color="#10E887"/>
<stop offset="1" stop-color="#00825C"/>
</linearGradient>
</defs>
</svg>
