<svg width="24" height="22" viewBox="0 0 24 22" fill="none" xmlns="http://www.w3.org/2000/svg">
<path d="M12.9722 13.1944C16.4087 13.1944 19.1944 10.4087 19.1944 6.97222C19.1944 3.53578 16.4087 0.75 12.9722 0.75C9.53578 0.75 6.75 3.53578 6.75 6.97222C6.75 10.4087 9.53578 13.1944 12.9722 13.1944Z" fill="#11D677" fill-opacity="0.2"/>
<path d="M22.75 16.75L17.4168 11.4167M19.1944 6.97222C19.1944 10.4087 16.4087 13.1944 12.9722 13.1944C9.53578 13.1944 6.75 10.4087 6.75 6.97222C6.75 3.53578 9.53578 0.75 12.9722 0.75C16.4087 0.75 19.1944 3.53578 19.1944 6.97222Z" stroke="#11D677" stroke-width="1.5" stroke-linecap="round" stroke-linejoin="round"/>
<path d="M12.75 9.7C12.75 10.777 10.0637 11.65 6.75 11.65C3.43629 11.65 0.75 10.777 0.75 9.7M12.75 9.7C12.75 8.62304 10.0637 7.75 6.75 7.75C3.43629 7.75 0.75 8.62304 0.75 9.7M12.75 9.7V18.8C12.75 19.879 10.0833 20.75 6.75 20.75C3.41667 20.75 0.75 19.879 0.75 18.8V9.7M12.75 14.25C12.75 15.329 10.0833 16.2 6.75 16.2C3.41667 16.2 0.75 15.329 0.75 14.25" stroke="#11D677" stroke-width="1.5" stroke-linecap="round" stroke-linejoin="round"/>
</svg>
