<svg width="64" height="64" viewBox="0 0 64 64" fill="none" xmlns="http://www.w3.org/2000/svg">
<path d="M0 32C0 14.3269 14.3269 0 32 0C49.6731 0 64 14.3269 64 32C64 49.6731 49.6731 64 32 64C14.3269 64 0 49.6731 0 32Z" fill="url(#paint0_linear_908_37)"/>
<path d="M40.25 22H23.75C22.2312 22 21 23.2088 21 24.7V37.3C21 38.7912 22.2312 40 23.75 40H40.25C41.7688 40 43 38.7912 43 37.3V24.7C43 23.2088 41.7688 22 40.25 22Z" stroke="white" stroke-width="2"/>
<path d="M31.4644 34.4424H30.0493L29.4868 32.979H26.9116L26.3799 34.4424H25L27.5093 28H28.8848L31.4644 34.4424ZM29.0693 31.8936L28.1816 29.5029L27.3115 31.8936H29.0693Z" fill="white"/>
<path d="M32.1587 34.4424V28H34.2461C35.0371 28 35.5527 28.0322 35.793 28.0967C36.1621 28.1934 36.4712 28.4043 36.7202 28.7295C36.9692 29.0518 37.0938 29.4692 37.0938 29.9819C37.0938 30.3774 37.022 30.71 36.8784 30.9795C36.7349 31.249 36.5518 31.4614 36.3291 31.6167C36.1094 31.769 35.8853 31.8701 35.6567 31.9199C35.3462 31.9814 34.8965 32.0122 34.3076 32.0122H33.4595V34.4424H32.1587ZM33.4595 29.0898V30.918H34.1714C34.6841 30.918 35.0269 30.8843 35.1997 30.8169C35.3726 30.7495 35.5073 30.644 35.604 30.5005C35.7036 30.3569 35.7534 30.1899 35.7534 29.9995C35.7534 29.7651 35.6846 29.5718 35.5469 29.4194C35.4092 29.2671 35.2349 29.1719 35.0239 29.1338C34.8687 29.1045 34.5566 29.0898 34.0879 29.0898H33.4595Z" fill="white"/>
<path d="M38.1221 34.4424V28H39.4229V34.4424H38.1221Z" fill="white"/>
<path d="M32 13V21" stroke="white" stroke-width="2"/>
<path d="M32 15.7059C33.5594 15.7059 34.8235 14.4418 34.8235 12.8824C34.8235 11.323 33.5594 10.0588 32 10.0588C30.4406 10.0588 29.1765 11.323 29.1765 12.8824C29.1765 14.4418 30.4406 15.7059 32 15.7059Z" fill="white"/>
<path d="M19 17L23 23" stroke="white" stroke-width="2"/>
<path d="M18.8235 19.4707C20.3829 19.4707 21.6471 18.2065 21.6471 16.6471C21.6471 15.0877 20.3829 13.8236 18.8235 13.8236C17.2641 13.8236 16 15.0877 16 16.6471C16 18.2065 17.2641 19.4707 18.8235 19.4707Z" fill="white"/>
<path d="M45 17L41 23" stroke="white" stroke-width="2"/>
<path d="M45.1765 19.4707C46.7359 19.4707 48 18.2065 48 16.6471C48 15.0877 46.7359 13.8236 45.1765 13.8236C43.6171 13.8236 42.3529 15.0877 42.3529 16.6471C42.3529 18.2065 43.6171 19.4707 45.1765 19.4707Z" fill="white"/>
<path d="M32 40.5V46.5" stroke="white" stroke-width="2"/>
<path d="M32 51.1177C33.5594 51.1177 34.8235 49.8536 34.8235 48.2942C34.8235 46.7348 33.5594 45.4707 32 45.4707C30.4406 45.4707 29.1765 46.7348 29.1765 48.2942C29.1765 49.8536 30.4406 51.1177 32 51.1177Z" stroke="white" stroke-width="2"/>
<path opacity="0.4" d="M32 53.9412C35.1187 53.9412 37.647 51.4129 37.647 48.2941C37.647 45.1753 35.1187 42.6471 32 42.6471C28.8812 42.6471 26.3529 45.1753 26.3529 48.2941C26.3529 51.4129 28.8812 53.9412 32 53.9412Z" stroke="white" stroke-width="2"/>
<defs>
<linearGradient id="paint0_linear_908_37" x1="32" y1="0" x2="32" y2="64" gradientUnits="userSpaceOnUse">
<stop stop-color="#10E887"/>
<stop offset="1" stop-color="#00825C"/>
</linearGradient>
</defs>
</svg>
