<svg width="40" height="40" viewBox="0 0 40 40" fill="none" xmlns="http://www.w3.org/2000/svg">
<rect width="40" height="40" rx="20" fill="url(#paint0_linear_1243_69)"/>
<path d="M15.3633 25.3337L19.3212 21.3025C19.5588 21.0605 19.6776 20.9395 19.8146 20.8942C19.9351 20.8543 20.0649 20.8543 20.1854 20.8942C20.3224 20.9395 20.4412 21.0605 20.6788 21.3025L24.6104 25.3068M21.2 21.8333L22.9212 20.0803C23.1588 19.8383 23.2776 19.7173 23.4146 19.6719C23.5351 19.632 23.6649 19.632 23.7854 19.6719C23.9224 19.7173 24.0412 19.8383 24.2788 20.0803L26 21.8333M18.8 18.1667C18.8 18.8417 18.2627 19.3889 17.6 19.3889C16.9373 19.3889 16.4 18.8417 16.4 18.1667C16.4 17.4917 16.9373 16.9444 17.6 16.9444C18.2627 16.9444 18.8 17.4917 18.8 18.1667ZM16.88 25.5H23.12C24.1281 25.5 24.6321 25.5 25.0172 25.3002C25.3559 25.1244 25.6312 24.8439 25.8038 24.499C26 24.1068 26 23.5934 26 22.5667V17.4333C26 16.4066 26 15.8932 25.8038 15.501C25.6312 15.1561 25.3559 14.8756 25.0172 14.6998C24.6321 14.5 24.1281 14.5 23.12 14.5H16.88C15.8719 14.5 15.3679 14.5 14.9828 14.6998C14.6441 14.8756 14.3688 15.1561 14.1962 15.501C14 15.8932 14 16.4066 14 17.4333V22.5667C14 23.5934 14 24.1068 14.1962 24.499C14.3688 24.8439 14.6441 25.1244 14.9828 25.3002C15.3679 25.5 15.8719 25.5 16.88 25.5Z" stroke="white" stroke-width="1.5" stroke-linecap="round" stroke-linejoin="round"/>
<defs>
<linearGradient id="paint0_linear_1243_69" x1="20" y1="0" x2="20" y2="40" gradientUnits="userSpaceOnUse">
<stop stop-color="#10E887"/>
<stop offset="1" stop-color="#00825C"/>
</linearGradient>
</defs>
</svg>
