<svg width="30" height="30" viewBox="0 0 30 30" fill="none" xmlns="http://www.w3.org/2000/svg">
<rect width="30" height="30" rx="15" fill="url(#paint0_linear_907_26)"/>
<path d="M10.3633 20.8337L14.3212 16.8025C14.5588 16.5605 14.6776 16.4395 14.8146 16.3942C14.9351 16.3543 15.0649 16.3543 15.1854 16.3942C15.3224 16.4395 15.4412 16.5605 15.6788 16.8025L19.6104 20.8068M16.2 17.3333L17.9212 15.5803C18.1588 15.3383 18.2776 15.2173 18.4146 15.1719C18.5351 15.132 18.6649 15.132 18.7854 15.1719C18.9224 15.2173 19.0412 15.3383 19.2788 15.5803L21 17.3333M13.8 13.6667C13.8 14.3417 13.2627 14.8889 12.6 14.8889C11.9373 14.8889 11.4 14.3417 11.4 13.6667C11.4 12.9917 11.9373 12.4444 12.6 12.4444C13.2627 12.4444 13.8 12.9917 13.8 13.6667ZM11.88 21H18.12C19.1281 21 19.6321 21 20.0172 20.8002C20.3559 20.6244 20.6312 20.3439 20.8038 19.999C21 19.6068 21 19.0934 21 18.0667V12.9333C21 11.9066 21 11.3932 20.8038 11.001C20.6312 10.6561 20.3559 10.3756 20.0172 10.1998C19.6321 10 19.1281 10 18.12 10H11.88C10.8719 10 10.3679 10 9.98282 10.1998C9.64413 10.3756 9.36876 10.6561 9.19619 11.001C9 11.3932 9 11.9066 9 12.9333V18.0667C9 19.0934 9 19.6068 9.19619 19.999C9.36876 20.3439 9.64413 20.6244 9.98282 20.8002C10.3679 21 10.8719 21 11.88 21Z" stroke="white" stroke-width="1.5" stroke-linecap="round" stroke-linejoin="round"/>
<defs>
<linearGradient id="paint0_linear_907_26" x1="29.7705" y1="29.5136" x2="-6.84598" y2="12.7352" gradientUnits="userSpaceOnUse">
<stop stop-color="#10E887"/>
<stop offset="1" stop-color="#00825C"/>
</linearGradient>
</defs>
</svg>
