<svg width="85" height="85" viewBox="0 0 85 85" fill="none" xmlns="http://www.w3.org/2000/svg">
<g opacity="0.7">
<path d="M42.25 77.25C61.5802 77.25 77.25 61.5802 77.25 42.25C77.25 22.92 61.5802 7.25 42.25 7.25C22.92 7.25 7.25 22.92 7.25 42.25C7.25 61.5802 22.92 77.25 42.25 77.25Z" fill="url(#paint0_linear_907_17)" fill-opacity="0.7" stroke="url(#paint1_linear_907_17)" stroke-opacity="0.7" stroke-width="0.5" stroke-linecap="round" stroke-linejoin="round"/>
<path d="M42.25 77.25C61.5802 77.25 77.25 61.5802 77.25 42.25C77.25 22.92 61.5802 7.25 42.25 7.25C22.92 7.25 7.25 22.92 7.25 42.25C7.25 61.5802 22.92 77.25 42.25 77.25Z" fill="url(#paint2_linear_907_17)" stroke="url(#paint3_linear_907_17)" stroke-width="0.5" stroke-linecap="round" stroke-linejoin="round"/>
<path d="M42.25 77.25C61.5802 77.25 77.25 61.5802 77.25 42.25C77.25 22.92 61.5802 7.25 42.25 7.25C22.92 7.25 7.25 22.92 7.25 42.25C7.25 61.5802 22.92 77.25 42.25 77.25Z" fill="url(#paint4_linear_907_17)" stroke="url(#paint5_linear_907_17)" stroke-width="0.5" stroke-linecap="round" stroke-linejoin="round"/>
</g>
<g opacity="0.9">
<g filter="url(#filter0_f_907_17)">
<path d="M42.25 15.25C27.3381 15.25 15.25 27.3381 15.25 42.25C15.25 57.1617 27.3381 69.25 42.25 69.25C57.1617 69.25 69.25 57.1617 69.25 42.25C69.25 27.3381 57.1617 15.25 42.25 15.25Z" fill="url(#paint6_linear_907_17)" fill-opacity="0.7"/>
<path d="M42.25 15.25C27.3381 15.25 15.25 27.3381 15.25 42.25C15.25 57.1617 27.3381 69.25 42.25 69.25C57.1617 69.25 69.25 57.1617 69.25 42.25C69.25 27.3381 57.1617 15.25 42.25 15.25Z" stroke="url(#paint7_linear_907_17)" stroke-opacity="0.7" stroke-width="0.5" stroke-linecap="round" stroke-linejoin="round"/>
</g>
<path d="M42.25 15.25C27.3381 15.25 15.25 27.3381 15.25 42.25C15.25 57.1617 27.3381 69.25 42.25 69.25C57.1617 69.25 69.25 57.1617 69.25 42.25C69.25 27.3381 57.1617 15.25 42.25 15.25Z" fill="url(#paint8_linear_907_17)" stroke="url(#paint9_linear_907_17)" stroke-width="0.5" stroke-linecap="round" stroke-linejoin="round"/>
<g filter="url(#filter1_d_907_17)">
<path d="M42.25 15.25C27.3381 15.25 15.25 27.3381 15.25 42.25C15.25 57.1617 27.3381 69.25 42.25 69.25C57.1617 69.25 69.25 57.1617 69.25 42.25C69.25 27.3381 57.1617 15.25 42.25 15.25Z" fill="url(#paint10_linear_907_17)" shape-rendering="crispEdges"/>
<path d="M42.25 15.25C27.3381 15.25 15.25 27.3381 15.25 42.25C15.25 57.1617 27.3381 69.25 42.25 69.25C57.1617 69.25 69.25 57.1617 69.25 42.25C69.25 27.3381 57.1617 15.25 42.25 15.25Z" stroke="url(#paint11_linear_907_17)" stroke-width="0.5" stroke-linecap="round" stroke-linejoin="round" shape-rendering="crispEdges"/>
</g>
</g>
<g filter="url(#filter2_d_907_17)">
<rect x="27.25" y="27.25" width="30" height="30" rx="15" fill="url(#paint12_linear_907_17)"/>
<path d="M37.6133 48.0837L41.5712 44.0525C41.8088 43.8105 41.9276 43.6895 42.0646 43.6442C42.1851 43.6043 42.3149 43.6043 42.4354 43.6442C42.5724 43.6895 42.6912 43.8105 42.9288 44.0525L46.8604 48.0568M43.45 44.5833L45.1712 42.8303C45.4088 42.5883 45.5276 42.4673 45.6646 42.4219C45.7851 42.382 45.9149 42.382 46.0354 42.4219C46.1724 42.4673 46.2912 42.5883 46.5288 42.8303L48.25 44.5833M41.05 40.9167C41.05 41.5917 40.5127 42.1389 39.85 42.1389C39.1873 42.1389 38.65 41.5917 38.65 40.9167C38.65 40.2417 39.1873 39.6944 39.85 39.6944C40.5127 39.6944 41.05 40.2417 41.05 40.9167ZM39.13 48.25H45.37C46.3781 48.25 46.8821 48.25 47.2672 48.0502C47.6059 47.8744 47.8812 47.5939 48.0538 47.249C48.25 46.8568 48.25 46.3434 48.25 45.3167V40.1833C48.25 39.1566 48.25 38.6432 48.0538 38.251C47.8812 37.9061 47.6059 37.6256 47.2672 37.4498C46.8821 37.25 46.3781 37.25 45.37 37.25H39.13C38.1219 37.25 37.6179 37.25 37.2328 37.4498C36.8941 37.6256 36.6188 37.9061 36.4462 38.251C36.25 38.6432 36.25 39.1566 36.25 40.1833V45.3167C36.25 46.3434 36.25 46.8568 36.4462 47.249C36.6188 47.5939 36.8941 47.8744 37.2328 48.0502C37.6179 48.25 38.1219 48.25 39.13 48.25Z" stroke="white" stroke-width="1.5" stroke-linecap="round" stroke-linejoin="round"/>
</g>
<defs>
<filter id="filter0_f_907_17" x="0" y="0" width="84.5" height="84.5" filterUnits="userSpaceOnUse" color-interpolation-filters="sRGB">
<feFlood flood-opacity="0" result="BackgroundImageFix"/>
<feBlend mode="normal" in="SourceGraphic" in2="BackgroundImageFix" result="shape"/>
<feGaussianBlur stdDeviation="7.5" result="effect1_foregroundBlur_907_17"/>
</filter>
<filter id="filter1_d_907_17" x="11" y="11" width="62.5" height="62.5" filterUnits="userSpaceOnUse" color-interpolation-filters="sRGB">
<feFlood flood-opacity="0" result="BackgroundImageFix"/>
<feColorMatrix in="SourceAlpha" type="matrix" values="0 0 0 0 0 0 0 0 0 0 0 0 0 0 0 0 0 0 127 0" result="hardAlpha"/>
<feOffset/>
<feGaussianBlur stdDeviation="2"/>
<feComposite in2="hardAlpha" operator="out"/>
<feColorMatrix type="matrix" values="0 0 0 0 1 0 0 0 0 1 0 0 0 0 1 0 0 0 0.15 0"/>
<feBlend mode="normal" in2="BackgroundImageFix" result="effect1_dropShadow_907_17"/>
<feBlend mode="normal" in="SourceGraphic" in2="effect1_dropShadow_907_17" result="shape"/>
</filter>
<filter id="filter2_d_907_17" x="22.25" y="24.25" width="40" height="40" filterUnits="userSpaceOnUse" color-interpolation-filters="sRGB">
<feFlood flood-opacity="0" result="BackgroundImageFix"/>
<feColorMatrix in="SourceAlpha" type="matrix" values="0 0 0 0 0 0 0 0 0 0 0 0 0 0 0 0 0 0 127 0" result="hardAlpha"/>
<feOffset dy="2"/>
<feGaussianBlur stdDeviation="2.5"/>
<feComposite in2="hardAlpha" operator="out"/>
<feColorMatrix type="matrix" values="0 0 0 0 0 0 0 0 0 0 0 0 0 0 0 0 0 0 0.1 0"/>
<feBlend mode="normal" in2="BackgroundImageFix" result="effect1_dropShadow_907_17"/>
<feBlend mode="normal" in="SourceGraphic" in2="effect1_dropShadow_907_17" result="shape"/>
</filter>
<linearGradient id="paint0_linear_907_17" x1="34.375" y1="19.2083" x2="20.9634" y2="71.7144" gradientUnits="userSpaceOnUse">
<stop stop-color="#10E887"/>
<stop offset="1" stop-color="#00825C"/>
</linearGradient>
<linearGradient id="paint1_linear_907_17" x1="42.25" y1="-22.2083" x2="42.25" y2="77.25" gradientUnits="userSpaceOnUse">
<stop stop-color="white" stop-opacity="0.1"/>
<stop offset="1" stop-color="white"/>
</linearGradient>
<linearGradient id="paint2_linear_907_17" x1="34.375" y1="19.2083" x2="20.9634" y2="71.7144" gradientUnits="userSpaceOnUse">
<stop stop-color="#E3FFF3"/>
<stop offset="1" stop-color="#8CE5BD"/>
</linearGradient>
<linearGradient id="paint3_linear_907_17" x1="42.25" y1="-22.2083" x2="42.25" y2="77.25" gradientUnits="userSpaceOnUse">
<stop stop-color="white" stop-opacity="0.1"/>
<stop offset="1" stop-color="white"/>
</linearGradient>
<linearGradient id="paint4_linear_907_17" x1="34.375" y1="19.2083" x2="20.9634" y2="71.7144" gradientUnits="userSpaceOnUse">
<stop stop-color="#E3FFF3"/>
<stop offset="1" stop-color="#8CE5BD"/>
</linearGradient>
<linearGradient id="paint5_linear_907_17" x1="42.25" y1="-22.2083" x2="42.25" y2="77.25" gradientUnits="userSpaceOnUse">
<stop stop-color="white" stop-opacity="0.1"/>
<stop offset="1" stop-color="white"/>
</linearGradient>
<linearGradient id="paint6_linear_907_17" x1="48.325" y1="60.025" x2="58.6711" y2="19.5203" gradientUnits="userSpaceOnUse">
<stop stop-color="#10E887"/>
<stop offset="1" stop-color="#00825C"/>
</linearGradient>
<linearGradient id="paint7_linear_907_17" x1="42.25" y1="91.975" x2="42.25" y2="15.25" gradientUnits="userSpaceOnUse">
<stop stop-color="white" stop-opacity="0.1"/>
<stop offset="1" stop-color="white"/>
</linearGradient>
<linearGradient id="paint8_linear_907_17" x1="48.325" y1="60.025" x2="58.6711" y2="19.5203" gradientUnits="userSpaceOnUse">
<stop stop-color="#E3FFF3"/>
<stop offset="1" stop-color="#8CE5BD"/>
</linearGradient>
<linearGradient id="paint9_linear_907_17" x1="42.25" y1="91.975" x2="42.25" y2="15.25" gradientUnits="userSpaceOnUse">
<stop stop-color="white" stop-opacity="0.1"/>
<stop offset="1" stop-color="white"/>
</linearGradient>
<linearGradient id="paint10_linear_907_17" x1="48.325" y1="60.025" x2="58.6711" y2="19.5203" gradientUnits="userSpaceOnUse">
<stop stop-color="#E3FFF3"/>
<stop offset="1" stop-color="#8CE5BD"/>
</linearGradient>
<linearGradient id="paint11_linear_907_17" x1="42.25" y1="91.975" x2="42.25" y2="15.25" gradientUnits="userSpaceOnUse">
<stop stop-color="white" stop-opacity="0.1"/>
<stop offset="1" stop-color="white"/>
</linearGradient>
<linearGradient id="paint12_linear_907_17" x1="57.0205" y1="56.7636" x2="20.404" y2="39.9852" gradientUnits="userSpaceOnUse">
<stop stop-color="#10E887"/>
<stop offset="1" stop-color="#00825C"/>
</linearGradient>
</defs>
</svg>
