<svg width="64" height="64" viewBox="0 0 64 64" fill="none" xmlns="http://www.w3.org/2000/svg">
<path d="M0 32C0 14.3269 14.3269 0 32 0C49.6731 0 64 14.3269 64 32C64 49.6731 49.6731 64 32 64C14.3269 64 0 49.6731 0 32Z" fill="url(#paint0_linear_908_27)"/>
<path d="M14 32H26.5217" stroke="white" stroke-width="2" stroke-linecap="round"/>
<path d="M37.4783 19.4783H28.0869C27.2225 19.4783 26.5217 20.179 26.5217 21.0435V42.9565C26.5217 43.821 27.2225 44.5217 28.0869 44.5217H37.4783C38.3427 44.5217 39.0435 43.821 39.0435 42.9565V21.0435C39.0435 20.179 38.3427 19.4783 37.4783 19.4783Z" stroke="white" stroke-width="2"/>
<path d="M29.6522 22.6087V41.3913" stroke="white" stroke-width="2"/>
<path d="M32.7826 22.6087V41.3913" stroke="white" stroke-width="2"/>
<path d="M35.913 22.6087V41.3913" stroke="white" stroke-width="2"/>
<path d="M39.0435 25.7391H48.4348" stroke="white" stroke-width="2" stroke-linecap="round"/>
<path d="M44.5217 21.8261L48.4348 25.7391L44.5217 29.6522" stroke="white" stroke-width="2" stroke-linecap="round" stroke-linejoin="round"/>
<path opacity="0.5" d="M39.0435 38.2609H45.3043" stroke="white" stroke-width="2" stroke-linecap="round"/>
<path opacity="0.5" d="M46.8696 35.1305L50 38.2609M50 35.1305L46.8696 38.2609" stroke="white" stroke-width="2" stroke-linecap="round"/>
<defs>
<linearGradient id="paint0_linear_908_27" x1="32" y1="0" x2="32" y2="64" gradientUnits="userSpaceOnUse">
<stop stop-color="#10E887"/>
<stop offset="1" stop-color="#00825C"/>
</linearGradient>
</defs>
</svg>
