<svg width="66" height="48" viewBox="0 0 66 48" fill="none" xmlns="http://www.w3.org/2000/svg">
<g clip-path="url(#clip0_18633_4437)">
<mask id="mask0_18633_4437" style="mask-type:luminance" maskUnits="userSpaceOnUse" x="0" y="0" width="66" height="48">
<path d="M66 0H0V48H66V0Z" fill="white"/>
</mask>
<g mask="url(#mask0_18633_4437)">
<path d="M62.3631 44.2869C62.3631 44.918 61.8939 45.3417 61.3384 45.3417V45.3378C60.7671 45.3417 60.3066 44.918 60.3066 44.287C60.3066 43.6562 60.7671 43.2337 61.3384 43.2337C61.894 43.2336 62.3631 43.656 62.3631 44.2869ZM62.7788 44.2869C62.7788 43.4207 62.0976 42.9178 61.3384 42.9178C60.574 42.9178 59.8928 43.4207 59.8928 44.2869C59.8928 45.1525 60.5742 45.6573 61.3384 45.6573C62.0978 45.6573 62.7788 45.1525 62.7788 44.2869ZM61.0995 44.4026H61.2537L61.6111 45.0225H62.0035L61.6077 44.3766C61.8122 44.3622 61.9805 44.2659 61.9805 43.9939C61.9805 43.656 61.7446 43.5474 61.345 43.5474H60.7671V45.0225H61.0993L61.0995 44.4026ZM61.0995 44.1529V43.7978H61.3306C61.4564 43.7978 61.6277 43.8078 61.6277 43.9593C61.6277 44.1242 61.539 44.1529 61.3908 44.1529H61.0995Z" fill="#7B868A"/>
<path d="M53.0786 36.7412L54.8745 41.594H51.2272L53.0786 36.7412ZM51.1553 34.8517L47.0167 45.2089H49.9391L50.5937 43.3788H55.4916L56.1111 45.2089H59.2837L55.1142 34.8503L51.1553 34.8517ZM42.8463 45.2128H45.8113V34.8484L42.8458 34.8478L42.8463 45.2128ZM22.2628 34.8478L19.789 43.0623L17.4193 34.8484L14.2202 34.8478L17.6046 45.2128H21.8761L25.2878 34.8478H22.2628ZM34.2477 37.1047H35.522C37.3708 37.1047 38.5665 37.9245 38.5665 40.0521C38.5665 42.1801 37.3708 43.0001 35.522 43.0001H34.2477V37.1047ZM31.3076 34.8478V45.2128H36.1145C38.6754 45.2128 39.5117 44.7923 40.416 43.849C41.0546 43.1867 41.4678 41.7332 41.4678 40.1443C41.4678 38.6869 41.1182 37.3879 40.5086 36.5785C39.4103 35.1308 37.8283 34.8478 35.4673 34.8478H31.3076ZM3.22119 34.8334V45.2128H6.21127V37.3317L8.52809 37.3324C9.29523 37.3324 9.84207 37.5211 10.2115 37.911C10.68 38.4039 10.8713 39.1996 10.8713 40.6551V45.2128H13.7687V39.4781C13.7687 35.3853 11.1276 34.8334 8.54334 34.8334H3.22119ZM26.5356 34.8478L26.5369 45.2128H29.5005V34.8478H26.5356Z" fill="#7B868A"/>
<path d="M11.1897 14.2101C11.1897 14.2101 15.0032 8.65271 22.6173 8.07777V6.06155C14.1836 6.73055 6.88037 13.7859 6.88037 13.7859C6.88037 13.7859 11.0168 25.5967 22.6173 26.6782V24.5351C14.1043 23.4772 11.1897 14.2101 11.1897 14.2101ZM22.6173 20.273V22.2356C16.1834 21.1027 14.3975 14.4967 14.3975 14.4967C14.3975 14.4967 17.4867 11.1165 22.6173 10.5683V12.7219C22.6135 12.7219 22.6108 12.7208 22.6076 12.7208C19.9147 12.4016 17.811 14.8863 17.811 14.8863C17.811 14.8863 18.9901 19.0692 22.6173 20.273ZM22.6173 2.34277V6.06155C22.865 6.0428 23.1126 6.0269 23.3615 6.01853C32.9498 5.69935 39.1971 13.7859 39.1971 13.7859C39.1971 13.7859 32.0217 22.4037 24.5463 22.4037C23.8612 22.4037 23.2198 22.3411 22.6173 22.2356V24.5351C23.1325 24.5997 23.6666 24.6377 24.224 24.6377C31.1805 24.6377 36.2111 21.1286 41.0823 16.9755C41.89 17.6144 45.1964 19.1687 45.8761 19.849C41.2445 23.6791 30.4502 26.7665 24.3306 26.7665C23.7407 26.7665 23.1742 26.7312 22.6173 26.6782V29.9095H49.0582V2.34277H22.6173ZM22.6173 10.5683V8.07777C22.8624 8.06086 23.1093 8.04797 23.3615 8.0401C30.2563 7.8262 34.7799 13.8924 34.7799 13.8924C34.7799 13.8924 29.8941 20.5947 24.6555 20.5947C23.9015 20.5947 23.2257 20.475 22.6173 20.273V12.7219C25.3016 13.0423 25.8417 14.2135 27.4554 16.8706L31.0446 13.8814C31.0446 13.8814 28.4246 10.4875 24.0079 10.4875C23.5279 10.4873 23.0684 10.5206 22.6173 10.5683Z" fill="#7B868A"/>
</g>
</g>
<defs>
<clipPath id="clip0_18633_4437">
<rect width="66" height="48" fill="white"/>
</clipPath>
</defs>
</svg>
