<svg width="60" height="56" viewBox="0 0 60 56" fill="none" xmlns="http://www.w3.org/2000/svg">
<g clip-path="url(#clip0_18633_4478)">
<g clip-path="url(#clip1_18633_4478)">
<mask id="mask0_18633_4478" style="mask-type:luminance" maskUnits="userSpaceOnUse" x="0" y="-3" width="60" height="61">
<path d="M59.3433 -2.00012H0V57.5647H59.3433V-2.00012Z" fill="white"/>
</mask>
<g mask="url(#mask0_18633_4478)">
<path d="M16.7234 22.9164C16.7234 23.6483 16.8023 24.2417 16.9405 24.6768C17.0983 25.112 17.2957 25.5867 17.572 26.101C17.6707 26.2592 17.7102 26.4175 17.7102 26.5559C17.7102 26.7537 17.5918 26.9515 17.3352 27.1494L16.0918 27.9801C15.9141 28.0988 15.7365 28.1581 15.5786 28.1581C15.3812 28.1581 15.1839 28.0592 14.9865 27.8812C14.7102 27.5845 14.4733 27.268 14.276 26.9515C14.0786 26.6153 13.8812 26.2395 13.6641 25.7845C12.1247 27.6043 10.1905 28.5142 7.86151 28.5142C6.20361 28.5142 4.88124 28.0395 3.91414 27.09C2.94703 26.1406 2.45361 24.8746 2.45361 23.2922C2.45361 21.6109 3.04572 20.2461 4.24967 19.2175C5.45361 18.1889 7.0523 17.6746 9.08519 17.6746C9.75624 17.6746 10.447 17.734 11.1773 17.8329C11.9076 17.9318 12.6576 18.09 13.447 18.268V16.8241C13.447 15.3208 13.1312 14.2724 12.5194 13.6592C11.8878 13.0461 10.822 12.7494 9.3023 12.7494C8.61151 12.7494 7.90098 12.8285 7.17072 13.0065C6.44046 13.1845 5.72993 13.4021 5.03914 13.679C4.72335 13.8175 4.48651 13.8966 4.34835 13.9362C4.21019 13.9757 4.11151 13.9955 4.03256 13.9955C3.75624 13.9955 3.61809 13.7977 3.61809 13.3823V12.4131C3.61809 12.0966 3.65756 11.8592 3.75624 11.7208C3.85493 11.5823 4.03256 11.4439 4.30888 11.3054C4.99967 10.9494 5.82861 10.6526 6.79572 10.4153C7.76282 10.1581 8.78914 10.0395 9.87467 10.0395C12.2233 10.0395 13.9405 10.5735 15.0457 11.6417C16.1312 12.7098 16.6839 14.3318 16.6839 16.5076V22.9164H16.7234ZM8.71019 25.923C9.36151 25.923 10.0326 25.8043 10.7431 25.5669C11.4536 25.3296 12.0852 24.8944 12.6181 24.301C12.9339 23.9252 13.1707 23.5098 13.2891 23.0351C13.4076 22.5603 13.4865 21.9867 13.4865 21.3142V20.4834C12.9141 20.345 12.3023 20.2263 11.6707 20.1472C11.0391 20.068 10.4273 20.0285 9.81546 20.0285C8.49309 20.0285 7.52598 20.2856 6.87467 20.8197C6.22335 21.3537 5.90756 22.1054 5.90756 23.0944C5.90756 24.0241 6.1444 24.7164 6.63782 25.1911C7.11151 25.6856 7.8023 25.923 8.71019 25.923ZM24.5589 28.0592C24.2036 28.0592 23.9668 27.9999 23.8089 27.8614C23.651 27.7428 23.5128 27.4658 23.3944 27.09L18.7562 11.7999C18.6378 11.4043 18.5786 11.1472 18.5786 11.0087C18.5786 10.6922 18.7365 10.5142 19.0523 10.5142H20.9865C21.3615 10.5142 21.6181 10.5735 21.7562 10.712C21.9141 10.8307 22.0326 11.1076 22.151 11.4834L25.4668 24.5779L28.5457 11.4834C28.6444 11.0878 28.7628 10.8307 28.9207 10.712C29.0786 10.5933 29.3549 10.5142 29.7102 10.5142H31.2891C31.6641 10.5142 31.9207 10.5735 32.0786 10.712C32.2365 10.8307 32.3747 11.1076 32.4536 11.4834L35.572 24.7362L38.9865 11.4834C39.1049 11.0878 39.2431 10.8307 39.3812 10.712C39.5391 10.5933 39.7957 10.5142 40.151 10.5142H41.9865C42.3023 10.5142 42.4799 10.6724 42.4799 11.0087C42.4799 11.1076 42.4602 11.2065 42.4405 11.3252C42.4207 11.4439 42.3812 11.6021 42.3023 11.8197L37.5457 27.1098C37.4273 27.5054 37.2891 27.7625 37.1312 27.8812C36.9733 27.9999 36.7168 28.079 36.3812 28.079H34.6839C34.3089 28.079 34.0523 28.0197 33.8944 27.8812C33.7365 27.7428 33.5983 27.4856 33.5194 27.09L30.4602 14.3318L27.4207 27.0702C27.322 27.4658 27.2036 27.723 27.0457 27.8614C26.8878 27.9999 26.6115 28.0592 26.2562 28.0592H24.5589ZM49.9207 28.5933C48.8944 28.5933 47.8681 28.4746 46.8812 28.2373C45.8944 27.9999 45.1247 27.7428 44.6115 27.4461C44.2957 27.268 44.0786 27.0702 43.9997 26.8922C43.9207 26.7142 43.8812 26.5164 43.8812 26.3384V25.3296C43.8812 24.9142 44.0391 24.7164 44.3352 24.7164C44.4536 24.7164 44.572 24.7362 44.6905 24.7757C44.8089 24.8153 44.9865 24.8944 45.1839 24.9735C45.8549 25.2702 46.5852 25.5076 47.3549 25.6658C48.1444 25.8241 48.9141 25.9032 49.7036 25.9032C50.947 25.9032 51.9141 25.6856 52.5852 25.2504C53.2562 24.8153 53.6115 24.1823 53.6115 23.3713C53.6115 22.8175 53.4339 22.3625 53.0786 21.9867C52.7233 21.6109 52.0523 21.2746 51.0852 20.9581L48.2233 20.068C46.7826 19.6131 45.7168 18.9406 45.0655 18.0504C44.4141 17.1801 44.0786 16.2109 44.0786 15.1823C44.0786 14.3515 44.2562 13.6197 44.6115 12.9867C44.9668 12.3537 45.4405 11.7999 46.0326 11.3647C46.6247 10.9098 47.2957 10.5735 48.0852 10.3362C48.8747 10.0988 49.7036 9.99988 50.572 9.99988C51.0062 9.99988 51.4602 10.0197 51.8944 10.079C52.3483 10.1384 52.7628 10.2175 53.1773 10.2966C53.572 10.3955 53.947 10.4944 54.3023 10.6131C54.6576 10.7318 54.9339 10.8504 55.1312 10.9691C55.4076 11.1274 55.6049 11.2856 55.7233 11.4636C55.8418 11.6219 55.901 11.8395 55.901 12.1164V13.0461C55.901 13.4614 55.7431 13.679 55.447 13.679C55.2891 13.679 55.0326 13.5999 54.697 13.4417C53.572 12.9274 52.3089 12.6702 50.9076 12.6702C49.7826 12.6702 48.8944 12.8483 48.2826 13.2241C47.6707 13.5999 47.3549 14.1735 47.3549 14.9845C47.3549 15.5384 47.5523 16.0131 47.947 16.3889C48.3418 16.7647 49.072 17.1406 50.1181 17.4768L52.9207 18.3669C54.3418 18.8219 55.3681 19.4548 55.9799 20.2658C56.5918 21.0768 56.8878 22.0065 56.8878 23.0351C56.8878 23.8856 56.7102 24.657 56.3747 25.3296C56.0194 26.0021 55.5457 26.5955 54.9339 27.0702C54.322 27.5647 53.5918 27.9208 52.7431 28.1779C51.8549 28.4548 50.9273 28.5933 49.9207 28.5933Z" fill="#7B868A"/>
<path fill-rule="evenodd" clip-rule="evenodd" d="M53.6511 38.2065C47.1576 43.0131 37.7234 45.5647 29.6116 45.5647C18.2432 45.5647 7.99974 41.3515 0.262898 34.3493C-0.348944 33.7955 0.203688 33.0438 0.933951 33.479C9.30237 38.3449 19.6247 41.2922 30.3024 41.2922C37.5063 41.2922 45.4208 39.7889 52.7037 36.7032C53.7892 36.2087 54.7168 37.4152 53.6511 38.2065Z" fill="#7B868A"/>
<path fill-rule="evenodd" clip-rule="evenodd" d="M56.3554 35.1208C55.5265 34.0527 50.8686 34.6065 48.7567 34.8637C48.1251 34.9428 48.0265 34.3889 48.5988 33.9736C52.3094 31.3626 58.408 32.1142 59.1186 32.9845C59.8291 33.8747 58.9212 39.9867 55.4475 42.9142C54.9146 43.3692 54.4015 43.1318 54.6383 42.5384C55.4278 40.5801 57.1844 36.1692 56.3554 35.1208Z" fill="#7B868A"/>
</g>
</g>
</g>
<defs>
<clipPath id="clip0_18633_4478">
<rect width="60" height="55.9997" fill="white"/>
</clipPath>
<clipPath id="clip1_18633_4478">
<rect width="60" height="60" fill="white" transform="translate(0 -2.00012)"/>
</clipPath>
</defs>
</svg>
