<svg width="93" height="63" viewBox="0 0 93 63" fill="none" xmlns="http://www.w3.org/2000/svg">
<g clip-path="url(#clip0_18633_4429)">
<path d="M50.1571 16.9474L51.0416 16.9628L53.4447 14.5597L53.5607 13.5414C51.6509 11.8427 49.138 10.809 46.3878 10.809C41.4084 10.809 37.2053 14.1971 35.9604 18.7868C36.2233 18.6035 36.7839 18.7404 36.7839 18.7404L41.587 17.9502C41.587 17.9502 41.8344 17.5404 41.9581 17.5659C42.9891 16.438 44.4116 15.746 45.9354 15.6311C47.4591 15.5161 48.9686 15.9869 50.1571 16.9474Z" fill="#7B868A"/>
<path d="M56.8298 18.7954C56.2777 16.764 55.1448 14.9378 53.57 13.5408L50.1664 16.9444C50.8649 17.5058 51.4286 18.2167 51.816 19.0248C52.2034 19.8329 52.4046 20.7176 52.4048 21.6137V22.2145C54.061 22.2145 55.4048 23.5622 55.4048 25.2145C55.4048 26.8668 54.0571 28.2145 52.4048 28.2145H46.4033L45.8025 28.8176V32.4191L46.4033 33.0168H52.4048C54.4717 33.0113 56.4523 32.1874 57.9133 30.7254C59.3743 29.2633 60.1969 27.2822 60.2009 25.2152C60.1978 22.5585 58.8587 20.2049 56.8221 18.7954H56.8298Z" fill="#7B868A"/>
<path d="M40.387 33.0221H46.387V28.219H40.387C39.9609 28.2192 39.5398 28.1277 39.1522 27.9507L38.2862 28.2159L35.8832 30.619L35.6729 31.4308C37.0249 32.469 38.6832 33.0292 40.3878 33.0236L40.387 33.0221Z" fill="#7B868A"/>
<path d="M40.3872 17.4137C38.3182 17.417 36.335 18.2403 34.8721 19.7032C33.4091 21.1662 32.5858 23.1494 32.5825 25.2183C32.5825 26.4231 32.8618 27.6114 33.3984 28.69C33.935 29.7686 34.7144 30.7082 35.6753 31.4348L39.1547 27.9554C38.6276 27.7183 38.1803 27.334 37.8665 26.8487C37.5526 26.3634 37.3857 25.7978 37.3856 25.2199C37.3856 23.5637 38.7333 22.2199 40.3856 22.2199C40.9633 22.2209 41.5285 22.3883 42.0136 22.702C42.4988 23.0157 42.8833 23.4625 43.1212 23.989L46.6006 20.5096C45.1732 18.6307 42.9201 17.4168 40.3841 17.4168L40.3872 17.4137Z" fill="#7B868A"/>
<path d="M9.2784 48.1575C7.63923 48.1575 6.23201 47.5776 5.04593 46.4178C3.85985 45.258 3.26758 43.8631 3.26758 42.2363C3.26758 40.6095 3.85907 39.2147 5.04593 38.0549C6.23278 36.8951 7.64154 36.3144 9.2784 36.3144C10.0293 36.3035 10.7748 36.4422 11.4716 36.7222C12.1684 37.0023 12.8025 37.4183 13.3369 37.9459L12.1949 39.0879C11.4134 38.3322 10.3646 37.9167 9.27763 37.932C8.09464 37.932 7.08948 38.3495 6.26526 39.19C5.86429 39.5881 5.54815 40.0634 5.33593 40.5871C5.1237 41.1108 5.01979 41.6721 5.03046 42.2371C5.03046 43.4325 5.44026 44.4461 6.26526 45.2835C6.65295 45.6903 7.12088 46.0121 7.63941 46.2287C8.15794 46.4452 8.71579 46.5517 9.27763 46.5415C10.4823 46.5415 11.4774 46.1549 12.2699 45.3554C12.7338 44.8915 13.0431 44.1956 13.1513 43.318H9.28072V41.7005H14.7271C14.7851 41.9881 14.8044 42.3191 14.8044 42.7057C14.8044 44.2954 14.3382 45.5557 13.4026 46.4905C12.3418 47.6 10.9671 48.1528 9.26989 48.1528L9.2784 48.1575ZM21.9356 47.075C21.1933 47.8018 20.2887 48.1575 19.2201 48.1575C18.1516 48.1575 17.2454 47.7941 16.5047 47.075C15.764 46.3559 15.3928 45.4412 15.3928 44.3534C15.3928 43.2655 15.764 42.3585 16.5047 41.6317C17.2454 40.9049 18.1516 40.5492 19.2201 40.5492C20.2887 40.5492 21.1949 40.9126 21.9356 41.6317C22.6763 42.3508 23.0475 43.2678 23.0475 44.3534C23.0475 45.4389 22.6763 46.3482 21.9356 47.075ZM17.7031 46.008C17.896 46.2176 18.1308 46.3844 18.3923 46.4975C18.6538 46.6105 18.9361 46.6674 19.2209 46.6644C19.8085 46.6644 20.3142 46.4464 20.7387 46.0072C21.1632 45.568 21.3743 45.0175 21.3743 44.3526C21.3743 43.6799 21.1655 43.1247 20.7457 42.6902C20.3258 42.2557 19.8194 42.0407 19.2209 42.0407C18.9355 42.0363 18.6523 42.0919 18.3897 42.2038C18.127 42.3156 17.8908 42.4814 17.6962 42.6902C17.2763 43.1232 17.0676 43.6768 17.0676 44.3526C17.0676 45.016 17.2787 45.5688 17.7031 46.0072V46.008ZM30.2853 47.075C29.5431 47.8018 28.6384 48.1575 27.5699 48.1575C26.5013 48.1575 25.5951 47.7941 24.8544 47.075C24.1137 46.3559 23.7426 45.4412 23.7426 44.3534C23.7426 43.2655 24.1137 42.3585 24.8544 41.6317C25.5951 40.9049 26.5013 40.5492 27.5699 40.5492C28.6384 40.5492 29.5446 40.9126 30.2853 41.6317C31.0261 42.3508 31.3972 43.2678 31.3972 44.3534C31.3972 45.4389 31.0261 46.3482 30.2853 47.075ZM26.0529 46.008C26.2458 46.2176 26.4806 46.3844 26.742 46.4975C27.0035 46.6105 27.2858 46.6674 27.5707 46.6644C28.1583 46.6644 28.664 46.4464 29.0884 46.0072C29.5129 45.568 29.724 45.0175 29.724 44.3526C29.724 43.6799 29.5152 43.1247 29.0954 42.6902C28.6756 42.2557 28.1691 42.0407 27.5707 42.0407C27.2852 42.0363 27.002 42.0919 26.7394 42.2038C26.4768 42.3156 26.2405 42.4814 26.0459 42.6902C25.6261 43.1232 25.4173 43.6768 25.4173 44.3526C25.4173 45.016 25.6284 45.5688 26.0529 46.0072V46.008ZM35.7743 51.5905C34.9276 51.5905 34.2147 51.3631 33.6371 50.9101C33.0596 50.457 32.6459 49.9327 32.3954 49.3343L33.8552 48.7289C34.0083 49.0954 34.2418 49.4131 34.5766 49.683C34.9114 49.9528 35.3034 50.0866 35.7766 50.0866C36.4121 50.0866 36.9116 49.8933 37.2712 49.509C37.6307 49.1247 37.8124 48.5688 37.8124 47.8467V47.3054H37.7544C37.2905 47.883 36.6124 48.1729 35.7472 48.1729C34.7745 48.1729 33.9225 47.8018 33.1902 47.0611C32.8346 46.711 32.5538 46.2921 32.3651 45.8301C32.1763 45.3681 32.0835 44.8725 32.0923 44.3735C32.0834 43.8713 32.176 43.3725 32.3647 42.9071C32.5534 42.4416 32.8342 42.0191 33.1902 41.665C33.9209 40.9204 34.7753 40.5461 35.7472 40.5461C36.1802 40.5461 36.573 40.6273 36.924 40.792C37.275 40.9567 37.5526 41.1585 37.7544 41.3974H37.8124V40.7835H39.4021V47.6317C39.4021 48.9616 39.0634 49.9544 38.383 50.6162C37.7026 51.2735 36.8351 51.6059 35.775 51.6059L35.7743 51.5905ZM35.8902 46.6637C36.1659 46.6685 36.4392 46.6122 36.6904 46.4987C36.9416 46.3851 37.1646 46.2173 37.3431 46.0072C37.7328 45.5688 37.9276 45.0229 37.9276 44.3665C37.9276 43.7031 37.7328 43.1479 37.3431 42.7041C37.1656 42.4924 36.943 42.3229 36.6917 42.2081C36.4403 42.0934 36.1665 42.0362 35.8902 42.0407C35.3026 42.0407 34.8016 42.2634 34.3887 42.7041C33.9758 43.1448 33.767 43.7 33.767 44.3665C33.767 45.0206 33.9735 45.5688 34.3887 46.0072C34.8039 46.4456 35.3034 46.6637 35.8902 46.6637ZM42.232 36.7165V47.9278H40.5565V36.7165H42.232ZM46.8248 48.1567C45.7454 48.1567 44.8454 47.7902 44.1232 47.0588C43.4011 46.3273 43.0392 45.4227 43.0392 44.3433C43.0392 43.2268 43.3871 42.3098 44.0861 41.5985C44.414 41.2534 44.8099 40.9801 45.2489 40.7959C45.6878 40.6118 46.1602 40.5206 46.6361 40.5284C47.0977 40.5284 47.5276 40.6119 47.9219 40.7812C48.2886 40.9314 48.6222 41.1521 48.9039 41.4307C49.1388 41.6645 49.3473 41.9236 49.5255 42.2031C49.6728 42.442 49.7986 42.6935 49.9013 42.9546L50.0753 43.3876L44.9768 45.5C45.3634 46.2701 45.982 46.6559 46.8263 46.6559C47.5964 46.6559 48.2235 46.3057 48.7036 45.6021L50.0026 46.4696C49.7127 46.9026 49.3044 47.293 48.7748 47.6394C48.2451 47.9858 47.5933 48.1575 46.8232 48.1575L46.8248 48.1567ZM44.7016 44.2289L48.1036 42.8139C48.0062 42.5727 47.8299 42.3778 47.5624 42.2294C47.2934 42.0787 46.9893 42.0019 46.681 42.0067C46.1892 42.0067 45.7299 42.2077 45.3023 42.6121C44.8748 43.0165 44.6683 43.557 44.6877 44.2296L44.7016 44.2289ZM58.8742 48.1567C57.3511 48.1567 56.0753 47.6418 55.0454 46.6103C54.0155 45.5789 53.499 44.2946 53.499 42.7536C53.499 41.2126 54.0139 39.9268 55.0454 38.8969C56.0768 37.867 57.3518 37.3505 58.8742 37.3505C60.4338 37.3505 61.7011 37.915 62.673 39.04L61.749 39.9369C61.0531 39.0601 60.0866 38.6224 58.8727 38.6224C57.7438 38.6224 56.7959 39.0028 56.0119 39.7644C55.2279 40.526 54.849 41.5211 54.849 42.7536C54.849 43.9861 55.2356 44.9835 56.0119 45.7459C56.7882 46.5083 57.7384 46.8879 58.8727 46.8879C60.1145 46.8879 61.1745 46.3869 62.0428 45.3863L62.9668 46.3103C62.4826 46.888 61.8749 47.3497 61.1884 47.6611C60.4603 47.996 59.6671 48.1655 58.8657 48.1575L58.8742 48.1567ZM65.4897 47.9278H64.1598V37.5848H65.4897V47.9278ZM67.657 41.6959C68.3413 40.9791 69.2034 40.6188 70.2719 40.6188C71.3405 40.6188 72.2026 40.9784 72.8869 41.6959C73.5711 42.4134 73.9129 43.3196 73.9129 44.3905C73.9129 45.4613 73.5727 46.3675 72.8869 47.0851C72.201 47.8026 71.3405 48.1621 70.2719 48.1621C69.2034 48.1621 68.3413 47.8026 67.657 47.0851C66.9727 46.3675 66.6309 45.4613 66.6309 44.3905C66.6309 43.3196 66.9711 42.4134 67.657 41.6959ZM68.6467 46.2446C69.1106 46.7108 69.6472 46.9451 70.2704 46.9451C70.8936 46.9451 71.4302 46.7108 71.8941 46.2446C72.358 45.7784 72.5807 45.1582 72.5807 44.3889C72.5807 43.6196 72.3511 42.9987 71.8941 42.5333C71.4371 42.0678 70.8936 41.8327 70.2704 41.8327C69.6472 41.8327 69.1106 42.067 68.6467 42.5333C68.1827 42.9995 67.9601 43.6196 67.9601 44.3889C67.9601 45.1582 68.1897 45.7791 68.6467 46.2446ZM81.2652 47.9278H79.9933V46.9459H79.9353C79.7343 47.2822 79.425 47.5698 79.0114 47.7964C78.5977 48.0229 78.1608 48.1521 77.6969 48.1521C76.8101 48.1521 76.1397 47.883 75.6827 47.3425C75.2258 46.8021 74.9961 46.0799 74.9961 45.1753V40.8407H76.326V44.9572C76.326 46.2778 76.9083 46.9366 78.0735 46.9366C78.3343 46.9421 78.5926 46.8847 78.8265 46.7692C79.0604 46.6537 79.2631 46.4836 79.4173 46.2732C79.761 45.8373 79.9445 45.2965 79.9369 44.7415V40.8407H81.2668V47.9209L81.2652 47.9278ZM85.7714 48.1575C84.8567 48.1575 84.0657 47.7956 83.4023 47.0735C82.7389 46.3513 82.4065 45.4559 82.4065 44.3858C82.4065 43.3157 82.7389 42.4204 83.4023 41.6982C84.0657 40.976 84.8575 40.6142 85.7714 40.6142C86.3095 40.6142 86.7951 40.7302 87.225 40.9598C87.6549 41.1894 87.975 41.4794 88.1861 41.8273H88.2441L88.1861 40.8454V37.5825H89.516V47.9278H88.2441V46.9459H88.1861C87.975 47.2915 87.6549 47.5814 87.225 47.8134C86.7959 48.0407 86.3103 48.1575 85.7714 48.1575ZM85.9879 46.9436C86.288 46.9476 86.5855 46.8879 86.8607 46.7683C87.136 46.6488 87.3827 46.4721 87.5845 46.25C88.0229 45.7884 88.2418 45.166 88.2418 44.3943C88.2418 43.6227 88.0237 42.9925 87.5845 42.5387C87.3827 42.3166 87.136 42.1399 86.8607 42.0203C86.5855 41.9008 86.288 41.841 85.9879 41.8451C85.3709 41.8451 84.8412 42.0794 84.3982 42.5456C83.9552 43.0119 83.7348 43.632 83.7348 44.4013C83.7348 45.1706 83.9552 45.7915 84.3982 46.257C84.5983 46.4798 84.8436 46.6576 85.1176 46.7783C85.3917 46.8991 85.6884 46.9602 85.9879 46.9575V46.9436Z" fill="#7B868A"/>
</g>
<defs>
<clipPath id="clip0_18633_4429">
<rect width="92.7834" height="62.3917" fill="white"/>
</clipPath>
</defs>
</svg>
