<svg width="92" height="56" viewBox="0 0 92 56" fill="none" xmlns="http://www.w3.org/2000/svg">
<g clip-path="url(#clip0_18633_4444)">
<path d="M46.7009 5.60903C46.7305 5.60634 46.7601 5.60434 46.7897 5.60303C46.9393 5.59608 47.1014 5.61409 47.2523 5.61539C53.9101 5.6727 60.6497 9.77496 62.6409 16.3332C62.8351 16.9726 63.0284 17.7273 63.0627 18.3984C64.3372 17.9157 67.59 17.8428 69.0473 18.0153C73.0615 18.4905 76.8845 20.4072 79.4774 23.5299C81.2245 25.6334 82.6868 29.1101 82.3949 31.8347C91.7482 36.2642 89.3297 48.2115 79.6517 49.9816C77.9065 50.3007 76.3466 50.2002 74.5885 50.1988L68.35 50.1991L45.148 50.2123L24.0129 50.2837L18.6496 50.3124C16.8695 50.3142 15.501 50.3346 13.7029 50.0345C3.32326 48.3019 -0.67298 36.0815 8.41199 29.6692C11.3438 27.5999 15.4063 26.9507 19.0009 27.6283C18.9174 25.8094 20.5717 23.1772 21.8768 21.969C24.3846 19.6473 27.2954 18.9726 30.6262 19.0399C30.6925 16.2995 32.1915 13.2592 33.9961 11.1932C36.7345 8.05809 40.8076 6.12961 44.9313 5.71075C45.5131 5.65165 46.1148 5.64752 46.7009 5.60903ZM31.4081 20.0593C26.5182 19.1825 21.0136 21.932 19.9821 27.0423C19.876 27.5676 19.8563 28.2334 19.8488 28.7722C16.387 27.8099 12.7842 28.0974 9.70776 29.9051C0.959353 35.0456 3.26861 46.4705 12.767 48.9588C15.2969 49.6216 17.4754 49.4253 20.0066 49.4246L26.4235 49.4221L46.2312 49.4172L69.5961 49.3481L75.4865 49.3357C76.753 49.3274 78.4125 49.3631 79.6218 49.1192C81.6334 48.71 83.4827 47.7248 84.9444 46.2835C88.0741 43.1361 88.249 38.2893 85.2562 34.9942C84.3019 33.9439 82.9228 32.9283 81.5791 32.4255C81.5303 28.6849 80.5711 25.7165 77.8233 23.0397C74.9247 20.268 71.0653 18.7268 67.0551 18.7395C66.1098 18.7514 64.8766 18.9225 63.9268 19.0561C63.4711 19.1203 62.7684 19.3825 62.3361 19.4015C62.2121 19.1275 62.1508 18.0443 62.0736 17.6829C60.575 10.6439 53.423 6.18842 46.4853 6.49132C46.2227 6.50279 45.8256 6.52041 45.5677 6.5062C41.1692 6.9888 37.1665 8.64265 34.3323 12.176C32.7872 14.0663 31.8066 16.3541 31.5033 18.7767C31.4572 19.1625 31.3893 19.6803 31.4081 20.0593Z" fill="#7B868A"/>
<path d="M43.3506 31.7277H46.3402L44.7615 29.1786L41.8613 33.7822L40.5374 33.7823L44.067 28.2567C44.218 28.0336 44.4766 27.8977 44.7592 27.8977C45.0361 27.8977 45.2901 28.0288 45.4409 28.2468L48.981 33.7822L47.6605 33.782L47.038 32.753H44.0108L43.3506 31.7277Z" fill="#7B868A"/>
<path d="M57.0676 32.7531V27.954H55.9451V33.2249C55.9451 33.3688 56.0054 33.5092 56.1106 33.611C56.2174 33.7213 56.3646 33.7821 56.5191 33.7821H61.6253L62.2907 32.7531H57.0676Z" fill="#7B868A"/>
<path d="M38.5282 31.8949C39.6196 31.8949 40.4965 31.0122 40.4965 29.9241C40.4965 28.8355 39.6197 27.954 38.5282 27.954H33.6245V33.7824H34.7453V28.9838H38.4529C38.974 28.9838 39.396 29.4039 39.396 29.9243C39.396 30.4433 38.9741 30.87 38.4529 30.87L35.2933 30.8677L38.6406 33.7822H40.2664L38.018 31.8951H38.5282" fill="#7B868A"/>
<path d="M26.7296 33.782C25.1202 33.782 23.8145 32.4799 23.8145 30.8698C23.8145 29.2585 25.1202 27.9536 26.7296 27.9536H30.1177C31.7296 27.9536 33.0272 29.2584 33.0272 30.8698C33.0272 32.4799 31.7297 33.7822 30.1177 33.7822L26.7296 33.782ZM30.0403 32.7567C31.0847 32.7567 31.9276 31.91 31.9276 30.8698C31.9276 29.826 31.0847 28.9834 30.0403 28.9834H26.8045C25.7629 28.9834 24.9197 29.8259 24.9197 30.8698C24.9197 31.9101 25.7633 32.7567 26.8045 32.7567H30.0403Z" fill="#7B868A"/>
<path d="M51.3214 33.7823C49.7103 33.7823 48.4023 32.4802 48.4023 30.87C48.4023 29.2587 49.7103 27.9539 51.3214 27.9539H55.3459L54.6839 28.9835H51.398C50.3518 28.9835 49.5089 29.826 49.5089 30.8697C49.5089 31.91 50.3518 32.7566 51.398 32.7566H55.4345L54.7799 33.782H51.3214" fill="#7B868A"/>
<path d="M65.0271 32.7568C64.1632 32.7568 63.4355 32.1769 63.2108 31.3841H67.9998L68.66 30.3567H63.2109C63.4347 29.5619 64.1632 28.9837 65.0271 28.9837H68.3153L68.9724 27.9541H64.9517C63.3438 27.9541 62.0391 29.2589 62.0391 30.8701C62.0391 32.4803 63.344 33.7824 64.9517 33.7824H68.4103L69.0669 32.757H65.0271" fill="#7B868A"/>
<path d="M69.5725 28.5761C69.5725 28.2916 69.8028 28.0613 70.0908 28.0613C70.378 28.0613 70.6055 28.2916 70.6055 28.5761C70.6055 28.8592 70.378 29.0899 70.0908 29.0899C69.8029 29.0899 69.5725 28.8592 69.5725 28.5761ZM70.0911 29.2311C70.4532 29.2311 70.7428 28.9414 70.7428 28.5789C70.7428 28.2172 70.4532 27.9211 70.0911 27.9211C69.7261 27.9211 69.4348 28.2172 69.4348 28.5789C69.4343 28.9413 69.726 29.2311 70.0911 29.2311ZM70.0275 28.1894C70.1259 28.1894 70.1712 28.194 70.2221 28.2082C70.3495 28.2501 70.3612 28.3709 70.3612 28.4135C70.3612 28.423 70.3579 28.4471 70.3543 28.4739C70.347 28.5027 70.3317 28.5624 70.2634 28.6011C70.2555 28.607 70.2498 28.6109 70.235 28.6186L70.4032 28.9222H70.2392L70.0883 28.6399H69.9898V28.9222H69.8436V28.1894H70.0275ZM70.0793 28.5212C70.1238 28.5212 70.171 28.5168 70.1988 28.4742C70.2184 28.4576 70.2211 28.4365 70.2211 28.4128C70.2211 28.3712 70.1971 28.3396 70.1639 28.3228C70.1259 28.3072 70.0972 28.3072 70.0275 28.3072H69.9898V28.5215H70.0793" fill="#7B868A"/>
<path d="M69.0669 36.7396H23.8142V37.0624H69.0669V36.7396Z" fill="#7B868A"/>
<path d="M39.5673 41.2588C39.5516 41.1272 39.5046 40.5923 38.9529 40.5923C38.3489 40.5923 38.0967 41.2224 38.0967 42.0048C38.0967 42.2308 38.0967 43.3073 38.8898 43.3073C39.2312 43.3073 39.5569 43.0924 39.5729 42.5882H40.4291C40.4136 42.8142 40.3924 43.1658 40.088 43.4813C39.7516 43.8272 39.3259 43.9069 38.9797 43.9069C37.6719 43.9069 37.2456 42.94 37.2456 41.9991C37.2456 40.7962 37.9181 39.9974 38.9845 39.9974C39.8148 39.9974 40.398 40.5021 40.398 41.2588H39.5673Z" fill="#7B868A"/>
<path d="M41.1899 40.0242H42.0202V43.1711H43.6488V43.8171H41.1899V40.0242Z" fill="#7B868A"/>
<path d="M45.7747 39.9397C46.1796 39.9397 46.736 40.0343 47.1095 40.4547C47.5142 40.9171 47.5922 41.5108 47.5922 41.8837C47.5922 42.4353 47.4247 43.0234 47.1148 43.3703C46.6943 43.8431 46.0801 43.9113 45.7649 43.9113C45.2658 43.9113 44.7661 43.7536 44.4195 43.3909C44.0046 42.9499 43.9519 42.3203 43.9519 41.9727C43.9519 40.9646 44.4096 39.9397 45.7747 39.9397ZM45.0868 43.0078C45.2024 43.1657 45.3968 43.3128 45.7748 43.3128C46.1059 43.3128 46.3317 43.1974 46.4843 42.9609C46.6105 42.7718 46.7417 42.478 46.7417 41.8736C46.7417 41.6902 46.7262 41.4269 46.647 41.1958C46.489 40.7284 46.1687 40.5233 45.78 40.5233C45.4754 40.5233 45.2338 40.6494 45.0818 40.8442C44.8658 41.107 44.803 41.5165 44.803 41.9473C44.8035 42.3092 44.8608 42.714 45.0868 43.0078Z" fill="#7B868A"/>
<path d="M49.0621 40.0291V42.3409C49.0621 42.7559 49.094 43.2763 49.8864 43.2763C50.018 43.2763 50.412 43.2707 50.622 42.9455C50.7006 42.8298 50.743 42.6823 50.743 42.2988V40.0292H51.5367V42.399C51.5367 43.5284 50.6383 43.8913 49.8709 43.8913C49.4928 43.8913 48.7995 43.807 48.4417 43.2348C48.2584 42.9458 48.2473 42.6516 48.2473 42.2989V40.0293H49.0621V40.0291H49.0621Z" fill="#7B868A"/>
<path d="M52.5108 40.0291L53.7665 40.0342C53.9764 40.0342 54.618 40.0394 55.0742 40.3757C55.5524 40.728 55.7209 41.3264 55.7209 41.8681C55.7209 43.0343 55.096 43.6438 54.3762 43.7753C54.2339 43.8016 54.0766 43.817 53.6926 43.817H52.5107L52.5108 40.0291ZM53.336 43.1916C53.4246 43.1971 53.5619 43.2023 53.6566 43.2023C54.0033 43.2023 54.3025 43.1765 54.5389 42.9397C54.8598 42.6189 54.8803 42.0514 54.8803 41.8681C54.8803 41.332 54.6962 40.8381 54.1868 40.6966C54.018 40.6489 53.8034 40.6228 53.3356 40.6437V43.1917L53.336 43.1916Z" fill="#7B868A"/>
</g>
<defs>
<clipPath id="clip0_18633_4444">
<rect width="91.8398" height="55.9997" fill="white"/>
</clipPath>
</defs>
</svg>
