<svg width="134" height="74" viewBox="0 0 134 74" fill="none" xmlns="http://www.w3.org/2000/svg">
<g clip-path="url(#clip0_18633_4492)">
<g clip-path="url(#clip1_18633_4492)">
<mask id="mask0_18633_4492" style="mask-type:luminance" maskUnits="userSpaceOnUse" x="0" y="9" width="134" height="56">
<path d="M134 9H0V65H134V9Z" fill="white"/>
</mask>
<g mask="url(#mask0_18633_4492)">
<mask id="mask1_18633_4492" style="mask-type:luminance" maskUnits="userSpaceOnUse" x="0" y="18" width="134" height="38">
<path d="M134 18H0V56H134V18Z" fill="white"/>
</mask>
<g mask="url(#mask1_18633_4492)">
<path d="M23.0575 53.9707C29.4609 52.8572 34.7497 51.9358 34.8105 51.9231L34.9209 51.9001L28.8755 44.8218C25.5505 40.9288 22.8301 37.7285 22.8301 37.7101C22.8301 37.6751 29.0725 20.7541 29.1076 20.6939C29.1193 20.6738 33.3675 27.8932 39.4054 38.1943C45.0582 47.8384 49.7186 55.79 49.7619 55.8645L49.8407 56L30.6279 55.9976L11.415 55.9951L23.0575 53.9707ZM96.7365 52.2588C93.8119 52.0743 92.111 50.435 91.6602 47.3667C91.5403 46.5505 91.5399 46.5293 91.5276 41.2305L91.5157 36.1021H92.8101H94.1044L94.1146 41.0626C94.1238 45.5333 94.1295 46.0575 94.173 46.372C94.3492 47.6484 94.7 48.5067 95.2973 49.1228C95.7754 49.6159 96.335 49.9046 97.1097 50.0578C97.4751 50.1301 98.5148 50.1302 98.848 50.0581C99.6334 49.888 100.263 49.5516 100.818 49.0052C101.451 48.3825 101.919 47.4989 102.146 46.4998L102.222 46.163L102.231 41.1606L102.239 36.1581H103.561H104.882V44.0221V51.8861H103.574H102.266V50.6384C102.266 49.7907 102.257 49.3938 102.237 49.4004C102.221 49.4057 102.154 49.5069 102.088 49.6252C101.637 50.4342 100.886 51.1741 100.063 51.6199C99.077 52.1542 98.0879 52.3441 96.7365 52.2588ZM126.421 52.2461C125.389 52.1697 124.302 51.8204 123.413 51.2794C121.541 50.1392 120.433 48.2597 120.108 45.6732C119.996 44.7782 119.982 43.576 120.076 42.8155C120.285 41.1161 120.964 39.4479 121.93 38.257C122.177 37.9517 122.739 37.3987 123.049 37.1549C123.887 36.4967 124.867 36.0364 125.907 35.8124C126.513 35.6819 127.58 35.6207 128.224 35.6794C129.841 35.827 131.324 36.5766 132.331 37.7565C133.355 38.9552 133.918 40.6302 133.989 42.6927C134.001 43.016 134.003 43.5827 133.995 43.9521L133.981 44.6238L128.316 44.6308L122.651 44.6379V44.8867C122.651 45.6442 122.838 46.507 123.162 47.2411C123.441 47.8741 123.921 48.5654 124.314 48.8999C125.12 49.5858 126.107 49.9963 127.186 50.0951C127.586 50.1318 128.606 50.0932 129.063 50.0242C130.364 49.8273 131.601 49.3249 132.6 48.5876C132.718 48.5008 132.83 48.4198 132.85 48.4074C132.879 48.3894 132.886 48.6161 132.886 49.5689L132.885 50.7527L132.617 50.9156C131.487 51.6037 130.192 52.0456 128.821 52.211C128.412 52.2603 126.91 52.2823 126.421 52.2461ZM131.351 42.2619C131.351 40.993 130.808 39.5835 130.039 38.8576C129.491 38.3396 128.827 38.0231 128.039 37.9029C127.666 37.846 126.88 37.8679 126.487 37.9461C125.655 38.1115 124.968 38.4712 124.368 39.0546C123.737 39.6685 123.263 40.4142 122.966 41.2638C122.859 41.5693 122.734 42.0709 122.695 42.3499L122.676 42.4828H127.014H131.351V42.2619ZM54.5082 51.8511C54.5148 51.8319 56.4385 46.8574 58.783 40.7968L63.0457 29.7775L64.4154 29.7774L65.785 29.7773L65.8987 30.0642C66.2459 30.9408 74.4324 51.8622 74.4324 51.8731C74.4324 51.8802 73.7767 51.886 72.9753 51.8859L71.5182 51.8856L70.3383 48.7934L69.1584 45.7013L64.4076 45.7012L59.6569 45.7011L59.6156 45.8061C59.5929 45.8638 59.0888 47.2552 58.4953 48.898L57.4164 51.885L55.9563 51.8855C54.8005 51.8859 54.4987 51.8788 54.5082 51.8511ZM68.2913 43.3415C68.2913 43.3366 67.4972 41.2177 66.5268 38.6329C64.7112 33.7971 64.6096 33.5061 64.4662 32.7298C64.3989 32.3657 64.3649 32.3556 64.325 32.6878C64.2964 32.9253 64.1727 33.4566 64.0773 33.7513C64.0299 33.8975 63.2124 36.1063 62.2604 38.6598C61.3085 41.2133 60.5296 43.3133 60.5296 43.3265C60.5296 43.3396 62.276 43.3504 64.4104 43.3504C66.5449 43.3504 68.2913 43.3464 68.2913 43.3415ZM75.3137 51.4834V51.0806L80.0469 44.6758L84.7802 38.271L80.4947 38.257L76.2093 38.243L76.2019 37.1725L76.1944 36.1021H82.3927H88.591V36.4636V36.8252L83.8572 43.2649C81.2537 46.8068 79.1235 49.7107 79.1235 49.7179C79.1235 49.7252 81.2281 49.7312 83.8004 49.7312H88.4773V50.8086V51.8861H81.8955H75.3137V51.4834ZM110.047 51.8674C110.036 51.8572 110.028 48.3058 110.028 43.9754V36.1021H111.322H112.615V37.7253C112.615 38.618 112.626 39.3484 112.64 39.3484C112.653 39.3484 112.716 39.2023 112.78 39.0237C113.07 38.2052 113.575 37.4405 114.225 36.8327C114.81 36.2852 115.479 35.9577 116.269 35.8324C116.49 35.7972 116.678 35.7905 117.122 35.8019C117.679 35.8161 117.97 35.8562 118.308 35.9652L118.415 35.9995V37.3213V38.643L118.109 38.4924C117.57 38.2264 117.037 38.1211 116.397 38.1539C115.98 38.1752 115.706 38.2279 115.373 38.351C114.687 38.6042 114.131 39.0513 113.743 39.6615C113.18 40.5448 112.779 41.6803 112.661 42.7239C112.64 42.9112 112.627 44.4364 112.622 47.4433L112.615 51.8861H111.34C110.639 51.8861 110.057 51.8777 110.047 51.8674ZM0 51.8121C0 51.8022 2.84857 46.9347 6.33016 40.9955L12.6603 30.1971L20.0374 24.1032C24.0948 20.7515 27.4254 18.0051 27.4387 18.0001C27.4521 17.9951 27.3987 18.1274 27.3201 18.294C27.2415 18.4606 23.6368 26.0713 19.3097 35.2065L11.4421 51.8161L5.72105 51.8232C2.57447 51.8271 0 51.8221 0 51.8121Z" fill="#7B868A"/>
</g>
</g>
</g>
</g>
<defs>
<clipPath id="clip0_18633_4492">
<rect width="134" height="74" fill="white"/>
</clipPath>
<clipPath id="clip1_18633_4492">
<rect width="134" height="56" fill="white" transform="translate(0 9)"/>
</clipPath>
</defs>
</svg>
