<svg width="110" height="26" viewBox="0 0 110 26" fill="none" xmlns="http://www.w3.org/2000/svg">
<g clip-path="url(#clip0_18633_4467)">
<g clip-path="url(#clip1_18633_4467)">
<path d="M31.8355 10.8607C31.0865 10.3589 29.1191 10.1445 27.6889 10.5284C27.6122 9.11 26.8769 7.9145 25.533 6.87137L25.0357 6.53904L24.7041 7.03777C24.0524 8.02256 23.7776 9.33517 23.8748 10.5284C23.9516 11.2636 24.2082 12.0897 24.7041 12.6893C22.8425 13.7645 21.1262 13.5203 13.5262 13.5203H1.79239C1.75833 15.229 2.03401 18.5153 4.13316 21.1907C4.36524 21.4864 4.61912 21.7722 4.89525 22.0475C6.60201 23.749 9.18076 24.997 13.0366 25.0001C18.9194 25.0056 23.9593 21.8396 27.0254 14.1855C28.0341 14.2017 30.6973 14.3654 32.0008 11.8582C32.0326 11.8162 32.3323 11.1935 32.3323 11.1935L31.8355 10.8612V10.8607ZM9.45008 9.29855H6.15057V12.5835H9.45008V9.29855ZM13.7124 9.29855H10.4129V12.5835H13.7124V9.29855ZM17.9752 9.29855H14.6757V12.5835H17.9752V9.29855ZM22.238 9.29855H18.9385V12.5835H22.238V9.29855ZM5.18728 9.29855H1.88777V12.5835H5.18728V9.29855ZM9.45008 5.14956H6.15057V8.43448H9.45008V5.14956ZM13.7124 5.14956H10.4129V8.43448H13.7124V5.14956ZM17.9752 5.14956H14.6757V8.43448H17.9752V5.14956ZM17.9752 1.00012H14.6757V4.28504H17.9752V1.00012Z" fill="#7B868A"/>
<path d="M107.585 19.9591C107.585 20.8154 106.909 21.4878 106.031 21.4878C105.153 21.4878 104.468 20.8154 104.468 19.9591C104.468 19.1027 105.161 18.4489 106.031 18.4489C106.901 18.4489 107.585 19.1212 107.585 19.9591ZM104.857 19.9591C104.857 20.6314 105.356 21.1654 106.041 21.1654C106.725 21.1654 107.197 20.6314 107.197 19.9686C107.197 19.3057 106.706 18.7527 106.032 18.7527C105.357 18.7527 104.857 19.2962 104.857 19.9591H104.857ZM105.791 20.7512H105.44V19.241C105.578 19.2134 105.773 19.1949 106.022 19.1949C106.309 19.1949 106.438 19.241 106.549 19.3057C106.633 19.3699 106.697 19.4897 106.697 19.6371C106.697 19.8031 106.568 19.9319 106.383 19.9871V20.0056C106.531 20.0603 106.614 20.1711 106.66 20.3737C106.706 20.6038 106.734 20.6961 106.772 20.7512H106.393C106.346 20.6961 106.318 20.5582 106.272 20.3827C106.244 20.2172 106.152 20.1435 105.957 20.1435H105.791V20.7517V20.7512ZM105.8 19.8948H105.966C106.16 19.8948 106.318 19.8306 106.318 19.6742C106.318 19.5358 106.216 19.4431 105.994 19.4431C105.902 19.4431 105.837 19.4526 105.8 19.4626V19.8948Z" fill="#7B868A"/>
<path d="M47.9855 4.67518C47.768 4.46357 47.5068 4.35596 47.1939 4.35596C46.881 4.35596 46.6121 4.46357 46.4028 4.67518C46.1929 4.88679 46.0903 5.15808 46.0903 5.48137V10.8801C45.0139 9.99435 43.7718 9.54762 42.3589 9.54762C40.7166 9.54762 39.3123 10.1381 38.1487 11.3232C36.9852 12.5043 36.4075 13.9331 36.4075 15.6088C36.4075 17.2845 36.9893 18.7092 38.1487 19.8943C39.3123 21.0753 40.713 21.6699 42.3589 21.6699C44.0048 21.6699 45.39 21.0794 46.569 19.8943C47.7325 18.725 48.3102 17.2967 48.3102 15.6088V5.48137C48.3102 5.15808 48.2035 4.88679 47.9855 4.67518ZM45.7973 17.0692V17.0774C45.6034 17.5363 45.3382 17.9392 45.0021 18.2824C44.666 18.6296 44.27 18.9009 43.819 19.1044C43.3639 19.3079 42.8811 19.4078 42.3629 19.4078C41.8447 19.4078 41.3502 19.3079 40.8951 19.1044C40.44 18.9009 40.0481 18.6296 39.7161 18.2864C39.3836 17.9433 39.1188 17.5404 38.9249 17.0814C38.731 16.6184 38.632 16.1278 38.632 15.6088C38.632 15.0897 38.731 14.5991 38.9249 14.1361C39.1188 13.6731 39.3841 13.2743 39.7161 12.9311C40.0485 12.5879 40.4441 12.3166 40.8951 12.1132C41.3502 11.9097 41.837 11.8098 42.3629 11.8098C42.8889 11.8098 43.3639 11.9097 43.819 12.1132C44.2741 12.3166 44.666 12.5879 45.0021 12.9352C45.3382 13.2824 45.6034 13.6853 45.7973 14.1402C45.9913 14.5991 46.0903 15.0861 46.0903 15.6047C46.0903 16.1233 45.9913 16.6144 45.7973 17.0692Z" fill="#7B868A"/>
<path d="M97.1541 13.2826C96.8653 12.5641 96.4252 11.9139 95.8479 11.3311L95.8402 11.327C94.6648 10.146 93.2596 9.55139 91.6301 9.55139C90.0006 9.55139 88.5831 10.1419 87.4195 11.327C86.256 12.508 85.6787 13.9369 85.6787 15.6125C85.6787 17.2882 86.2605 18.713 87.4195 19.8981C88.5831 21.0791 89.9842 21.6737 91.6301 21.6737C93.1252 21.6737 94.4191 21.1831 95.5196 20.2015C95.7326 19.9781 95.8402 19.7068 95.8402 19.3912C95.8402 19.0756 95.7376 18.7966 95.5273 18.585C95.3179 18.3734 95.0527 18.2658 94.7361 18.2658C94.4596 18.2739 94.2139 18.3657 94.0045 18.5493C93.672 18.8364 93.3119 19.0562 92.9204 19.2C92.5284 19.3437 92.1011 19.4156 91.6346 19.4156C91.2227 19.4156 90.8271 19.3519 90.4515 19.2203C90.075 19.0887 89.7235 18.9088 89.4106 18.6736C89.0936 18.4381 88.8211 18.1591 88.5876 17.8277C88.3542 17.5003 88.1762 17.1372 88.0576 16.7384H96.4742C96.7862 16.7384 97.0474 16.6308 97.2654 16.4192C97.4834 16.2076 97.5901 15.9363 97.5901 15.613C97.5901 14.7752 97.443 13.997 97.155 13.2826H97.1541ZM88.049 14.4876C88.1639 14.0924 88.3379 13.7293 88.5713 13.3983C88.8052 13.071 89.0818 12.7879 89.3983 12.5524C89.719 12.3168 90.0669 12.1373 90.4506 12.0057C90.8339 11.8741 91.2254 11.8104 91.6301 11.8104C92.0348 11.8104 92.4253 11.8741 92.8046 12.0057C93.1847 12.1373 93.5335 12.3168 93.8455 12.5524C94.1625 12.7879 94.4391 13.0669 94.6726 13.3983C94.9096 13.7257 95.0886 14.0888 95.2112 14.4876H88.0486H88.049Z" fill="#7B868A"/>
<path d="M107.497 10.3096C107.299 10.1143 107.05 9.96236 106.749 9.85068C106.448 9.739 106.12 9.66303 105.76 9.61917C105.404 9.57531 105.067 9.55542 104.755 9.55542C104.046 9.55542 103.382 9.67117 102.757 9.90268C102.132 10.1342 101.554 10.4652 101.023 10.8961V10.6808C101.023 10.3698 100.917 10.1061 100.699 9.88685C100.482 9.66755 100.224 9.55587 99.9198 9.55587C99.6155 9.55587 99.3458 9.66755 99.1287 9.88685C98.9107 10.1061 98.804 10.3738 98.804 10.6808V20.5491C98.804 20.8602 98.9107 21.1238 99.1287 21.3431C99.3458 21.5624 99.6069 21.6741 99.9198 21.6741C100.233 21.6741 100.485 21.5624 100.699 21.3431C100.917 21.1238 101.023 20.8562 101.023 20.5491V15.613C101.023 15.0862 101.122 14.5915 101.316 14.1285C101.51 13.6655 101.776 13.2667 102.112 12.9235C102.449 12.5803 102.844 12.3091 103.295 12.1133C103.75 11.9139 104.233 11.8139 104.752 11.8139C105.27 11.8139 105.76 11.9057 106.208 12.0852C106.385 12.1653 106.54 12.2051 106.675 12.2051C106.829 12.2051 106.975 12.177 107.11 12.1173C107.244 12.0577 107.363 11.9776 107.462 11.8741C107.561 11.7705 107.64 11.6507 107.699 11.511C107.759 11.3753 107.791 11.2275 107.791 11.0679C107.791 10.7568 107.692 10.5054 107.494 10.3096H107.498H107.497Z" fill="#7B868A"/>
<path d="M61.035 13.2866C60.7461 12.5722 60.3146 11.9179 59.7333 11.3274C58.5584 10.1463 57.1537 9.55176 55.5232 9.55176C53.8927 9.55176 52.4767 10.1423 51.3131 11.3274C50.1495 12.5084 49.5723 13.9372 49.5723 15.6129C49.5723 17.2886 50.1541 18.7133 51.3131 19.8984C52.4767 21.0795 53.8773 21.6741 55.5232 21.6741C57.1691 21.6741 58.5543 21.0836 59.7333 19.8984C60.8969 18.7292 61.4746 17.3008 61.4746 15.6129C61.4664 14.7751 61.3202 14.001 61.0354 13.2866H61.035ZM58.9617 17.0693V17.0774C58.7678 17.5364 58.5025 17.9393 58.1664 18.2824C57.8304 18.6297 57.4343 18.901 56.9833 19.1045C56.5324 19.3079 56.0455 19.4079 55.5273 19.4079C55.0091 19.4079 54.5145 19.3079 54.0594 19.1045C53.6044 18.901 53.2124 18.6297 52.8804 18.2865C52.548 17.9433 52.2832 17.5405 52.0893 17.0815C51.8953 16.6185 51.7963 16.1279 51.7963 15.6088C51.7963 15.0898 51.8953 14.5992 52.0893 14.1362C52.2832 13.6732 52.5484 13.2744 52.8804 12.9312C53.2129 12.588 53.6084 12.3167 54.0594 12.1132C54.5145 11.9098 55.0014 11.8098 55.5273 11.8098C56.0532 11.8098 56.5283 11.9098 56.9833 12.1132C57.4384 12.3167 57.8304 12.588 58.1664 12.9352C58.5025 13.2825 58.7678 13.6854 58.9617 14.1402C59.1556 14.5992 59.2546 15.0862 59.2546 15.6048C59.2546 16.1234 59.1556 16.6144 58.9617 17.0693Z" fill="#7B868A"/>
<path d="M84.8391 10.6767C84.8391 10.5253 84.8073 10.3815 84.7483 10.2458C84.6888 10.1102 84.6098 9.98674 84.5108 9.88274C84.4118 9.7792 84.2932 9.6951 84.1588 9.63948C84.0244 9.58387 83.8781 9.55176 83.7237 9.55176C83.5021 9.55176 83.304 9.60783 83.1301 9.72358L76.7754 13.9336V5.48959C76.7754 5.17037 76.6687 4.90314 76.4511 4.6834C76.2336 4.4641 75.9765 4.35242 75.6718 4.35242C75.3671 4.35242 75.0982 4.4641 74.8802 4.6834C74.6626 4.90269 74.5559 5.17037 74.5559 5.48959V20.5333C74.5559 20.8444 74.6626 21.112 74.8802 21.3354C75.0977 21.5588 75.3589 21.6705 75.6718 21.6705C75.9847 21.6705 76.2377 21.5588 76.4511 21.3354C76.6687 21.112 76.7754 20.8444 76.7754 20.5333V16.6267L78.0734 15.7608L82.9839 21.3752C83.1819 21.5705 83.4312 21.6664 83.7278 21.6664C83.8822 21.6664 84.0284 21.6383 84.1629 21.5787C84.2973 21.5226 84.4163 21.4389 84.5149 21.3354C84.6139 21.2319 84.6929 21.112 84.7524 20.9723C84.8119 20.8367 84.8432 20.6888 84.8432 20.5414C84.8432 20.2462 84.7406 19.9826 84.5344 19.7515L79.9641 14.5124L84.4154 11.5675C84.7002 11.3721 84.8387 11.0728 84.8387 10.6695V10.6776L84.8391 10.6767Z" fill="#7B868A"/>
<path d="M66.025 12.9236C66.3652 12.5804 66.7612 12.3091 67.2163 12.1133C67.6714 11.9139 68.1542 11.814 68.6724 11.814C69.1393 11.814 69.5707 11.894 69.9704 12.0532C70.366 12.2128 70.7461 12.4484 71.1058 12.7554C71.3192 12.9267 71.5609 13.0145 71.8297 13.0145C72.1504 13.0145 72.4115 12.9069 72.6213 12.6912C72.8312 12.4755 72.9338 12.2042 72.9338 11.8809C72.9338 11.5576 72.8071 11.2583 72.55 11.0272C71.4578 10.0456 70.1643 9.55457 68.6724 9.55457C67.0301 9.55457 65.6258 10.1451 64.4623 11.3302C63.2987 12.5112 62.7214 13.94 62.7214 15.6157C62.7214 17.2914 63.3032 18.7162 64.4623 19.9013C65.6258 21.0823 67.0265 21.6769 68.6724 21.6769C70.1602 21.6769 71.4541 21.1863 72.55 20.2042C72.7835 19.965 72.9025 19.6896 72.9025 19.3704C72.9025 19.0512 72.7994 18.7758 72.59 18.5642C72.3802 18.3526 72.1154 18.245 71.7988 18.245C71.53 18.2531 71.2961 18.3327 71.0985 18.4842C70.7425 18.7953 70.3705 19.0268 69.9708 19.1823C69.5753 19.3379 69.1438 19.4138 68.6728 19.4138C68.1546 19.4138 67.6718 19.3139 67.2168 19.1145C66.7617 18.9151 66.3661 18.6438 66.0255 18.3047C65.6853 17.9656 65.416 17.5586 65.2221 17.0997C65.0281 16.6367 64.9291 16.142 64.9291 15.6153C64.9291 15.0885 65.0281 14.5938 65.2221 14.1308C65.416 13.6678 65.6849 13.269 66.0255 12.9258V12.9218L66.025 12.9236Z" fill="#7B868A"/>
</g>
</g>
<defs>
<clipPath id="clip0_18633_4467">
<rect width="109.58" height="25.1496" fill="white"/>
</clipPath>
<clipPath id="clip1_18633_4467">
<rect width="109.58" height="25.1496" fill="white"/>
</clipPath>
</defs>
</svg>
