<svg width="949" height="162" viewBox="0 0 949 162" fill="none" xmlns="http://www.w3.org/2000/svg">
<path d="M41.1851 81C41.1851 81 72.7357 102.22 80.5854 126.197C88.4351 150.174 74.3323 161 74.3323 161C74.3323 161 -1.3055 105 0.0171575 81H41.1851Z" fill="url(#paint0_linear_71_1335)"/>
<path d="M41.2033 80.9536C41.2033 80.9536 78.1117 47.6396 80.5864 35.7827C88.4327 11.8191 74.336 0.999885 74.336 0.999885C74.336 0.999885 0.407092 54.3322 0.0533463 80.9536C0.0533463 80.9536 -1.2741 88.9491 9.31451 102.275C17.0331 111.988 33.8483 127.42 33.8483 127.42C33.8483 127.42 27.8327 115.115 27.8327 106.272C27.8327 92.6836 41.2033 80.9536 41.2033 80.9536Z" fill="url(#paint1_linear_71_1335)"/>
<path d="M133.006 81C133.006 81 101.456 59.7805 93.6061 35.803C85.7565 11.8255 99.8592 1 99.8592 1C99.8592 1 175.497 57 174.174 81H133.006Z" fill="url(#paint2_linear_71_1335)"/>
<path d="M132.988 81.0464C132.988 81.0464 96.0798 114.36 93.6051 126.217C85.7589 150.181 99.8555 161 99.8555 161C99.8555 161 173.784 107.668 174.138 81.0464C174.138 81.0464 175.466 73.0509 164.877 59.7254C157.158 50.0117 140.343 34.5804 140.343 34.5804C140.343 34.5804 146.359 46.8851 146.359 55.7277C146.359 69.3164 132.988 81.0464 132.988 81.0464Z" fill="url(#paint3_linear_71_1335)"/>
<path d="M86.9608 100.188C90.3477 100.134 89.9951 92.1676 93.9654 87.9644C97.9357 83.7611 105.435 83.9876 105.435 80.6302C105.435 77.2728 97.9357 77.1082 93.9654 72.9049C89.9951 68.7017 90.44 61.0725 86.9608 61.0725C83.4816 61.0725 83.2491 68.7017 79.2788 72.9049C75.3085 77.1082 68.4871 77.0609 68.4871 80.6302C68.4871 84.1995 75.3085 83.7611 79.2788 87.9644C83.2491 92.1676 83.5739 100.242 86.9608 100.188Z" fill="white"/>
<path d="M278.594 85.836C294.632 94.098 300.302 114.024 302.084 138H282.482C280.538 110.298 275.678 91.992 257.048 91.992H227.078V138H207.476V24.6H260.288C285.074 24.6 299.33 36.912 299.33 56.838C299.33 71.256 291.716 81.3 278.594 85.836ZM227.078 41.124V76.116H260.126C272.438 76.116 279.242 69.96 279.242 58.62C279.242 47.28 272.438 41.124 260.126 41.124H227.078ZM374.186 112.404H394.274C389.576 129.414 375.158 140.268 354.908 140.268C329.636 140.268 313.598 123.258 313.598 97.5C313.598 71.742 329.798 54.732 355.394 54.732C383.906 54.732 398.648 76.116 390.872 102.684H333.2C334.82 116.13 342.272 124.068 355.232 124.068C364.304 124.068 371.432 119.856 374.186 112.404ZM355.07 70.284C342.92 70.284 335.468 77.088 333.524 89.562H373.376C374.51 77.898 367.868 70.284 355.07 70.284ZM441.524 54.732C465.176 54.732 477.164 69.474 477.164 91.992V138H460.154V123.906C454.16 134.274 444.278 140.268 430.994 140.268C413.822 140.268 403.13 130.224 403.13 116.13C403.13 99.768 417.386 89.886 440.228 89.886C446.546 89.886 453.026 90.696 458.696 91.992C458.696 79.68 454.322 70.77 441.362 70.77C431.642 70.77 425.648 75.63 427.592 84.702H408.962C404.588 66.72 420.464 54.732 441.524 54.732ZM434.72 125.526C446.546 125.526 456.266 117.912 459.344 106.086C453.998 104.304 447.518 103.332 441.686 103.332C428.402 103.332 421.922 108.192 421.922 115.644C421.922 122.124 426.782 125.526 434.72 125.526ZM512.678 138H494.21V24.6H512.678V138ZM625.657 54.732C642.343 54.732 651.091 66.72 651.091 86.484V138H632.623V88.428C632.623 78.06 628.249 71.094 619.501 71.094C608.323 71.094 600.547 81.786 600.547 98.31V138H582.079V88.428C582.079 77.898 577.705 70.77 568.795 70.77C557.941 70.77 549.679 81.624 549.679 98.472V138H531.211V57H549.679V71.418C553.891 61.86 562.963 54.732 575.437 54.732C587.263 54.732 595.849 61.374 599.251 71.904C603.949 61.212 613.507 54.732 625.657 54.732Z" fill="white"/>
<path d="M687.012 138H682.152V24.6H687.012V138ZM738.435 55.704C762.897 55.704 769.377 73.524 769.377 93.288V138H764.517V118.074C759.009 130.548 747.507 139.296 730.659 139.296C713.973 139.296 702.471 130.872 702.471 116.292C702.471 99.768 717.051 89.4 738.111 89.4C747.183 89.4 756.741 91.344 764.517 94.26V93.288C764.517 76.44 759.819 60.564 738.111 60.564C721.587 60.564 710.409 69.798 713.973 85.836H708.789C704.739 68.178 717.861 55.704 738.435 55.704ZM730.983 134.436C752.205 134.436 764.355 118.722 764.517 99.444C757.065 96.204 747.345 94.26 738.435 94.26C720.129 94.26 707.655 102.684 707.655 116.13C707.655 127.794 717.213 134.436 730.983 134.436ZM825.481 55.704C847.513 55.704 862.255 72.39 862.255 97.5C862.255 122.61 847.513 139.296 825.481 139.296C810.253 139.296 798.751 131.358 792.919 118.236V138H788.059V24.6H792.919V76.764C798.751 63.642 810.253 55.704 825.481 55.704ZM824.833 134.436C844.273 134.436 857.071 119.694 857.071 97.5C857.071 75.306 844.273 60.564 824.995 60.564C805.393 60.564 792.433 75.306 792.433 97.5C792.433 120.018 805.717 134.436 824.833 134.436ZM907.635 139.296C884.793 139.296 872.319 126.174 873.777 106.41H878.961C877.503 123.582 888.519 134.76 907.635 134.76C923.835 134.76 933.879 126.822 933.879 116.292C933.879 91.182 876.207 108.192 876.207 78.06C876.207 63.804 889.167 55.704 905.853 55.704C927.075 55.704 939.225 68.34 936.147 85.674H930.963C933.879 70.932 923.349 60.24 905.691 60.24C891.273 60.24 881.391 67.692 881.391 78.06C881.391 103.17 939.063 86.484 939.063 116.292C939.063 130.548 926.103 139.296 907.635 139.296Z" fill="#C7C7FF"/>
<defs>
<linearGradient id="paint0_linear_71_1335" x1="29.4333" y1="104.704" x2="82.5983" y2="133.998" gradientUnits="userSpaceOnUse">
<stop stop-color="#10E887"/>
<stop offset="1" stop-color="#00825C"/>
</linearGradient>
<linearGradient id="paint1_linear_71_1335" x1="53.7158" y1="30.6295" x2="26.6749" y2="101.669" gradientUnits="userSpaceOnUse">
<stop stop-color="#10E887"/>
<stop offset="1" stop-color="#00825C"/>
</linearGradient>
<linearGradient id="paint2_linear_71_1335" x1="144.758" y1="57.2963" x2="91.5932" y2="28.0025" gradientUnits="userSpaceOnUse">
<stop stop-color="#10E887"/>
<stop offset="1" stop-color="#00825C"/>
</linearGradient>
<linearGradient id="paint3_linear_71_1335" x1="120.476" y1="131.371" x2="147.517" y2="60.3315" gradientUnits="userSpaceOnUse">
<stop stop-color="#10E887"/>
<stop offset="1" stop-color="#00825C"/>
</linearGradient>
</defs>
</svg>
