<svg width="40" height="40" viewBox="0 0 40 40" fill="none" xmlns="http://www.w3.org/2000/svg">
<rect width="40" height="40" rx="20" fill="url(#paint0_linear_1243_69)"/>
<path d="M30.9184 12.0874H19.8149C19.0151 12.0874 18.3667 12.7505 18.3667 13.5686V21.7151C18.3667 22.5332 19.0151 23.1963 19.8149 23.1963H30.9184C31.7183 23.1963 32.3667 22.5332 32.3667 21.7151V13.5686C32.3667 12.7505 31.7183 12.0874 30.9184 12.0874Z" fill="#0BC579" stroke="white"/>
<path d="M23.677 15.7904V19.9871L27.2977 17.8887L23.677 15.7904Z" fill="white"/>
<path d="M20.1851 16.8037H9.08161C8.28175 16.8037 7.63333 17.4668 7.63333 18.2849V26.4314C7.63333 27.2495 8.28175 27.9126 9.08161 27.9126H20.1851C20.9849 27.9126 21.6333 27.2495 21.6333 26.4314V18.2849C21.6333 17.4668 20.9849 16.8037 20.1851 16.8037Z" fill="#09B371" stroke="white"/>
<path d="M11.254 21.741C12.0539 21.741 12.7023 21.0778 12.7023 20.2598C12.7023 19.4418 12.0539 18.7786 11.254 18.7786C10.4541 18.7786 9.80573 19.4418 9.80573 20.2598C9.80573 21.0778 10.4541 21.741 11.254 21.741Z" fill="white"/>
<path d="M9.08163 25.6908L12.4609 22.2347L14.8747 24.7034L17.2885 21.741L20.1851 25.6908H9.08163Z" fill="white"/>
<defs>
<linearGradient id="paint0_linear_1243_69" x1="20" y1="0" x2="20" y2="40" gradientUnits="userSpaceOnUse">
<stop stop-color="#10E887"/>
<stop offset="1" stop-color="#00825C"/>
</linearGradient>
</defs>
</svg>
