<svg width="16" height="19" viewBox="0 0 16 19" fill="none" xmlns="http://www.w3.org/2000/svg">
<path d="M5.12518 8.85079L6.87518 10.5685L10.8127 6.70364M14.7502 9.28022C14.7502 13.4959 10.0655 16.562 8.36092 17.5381C8.1672 17.649 8.07035 17.7045 7.93365 17.7333C7.82757 17.7556 7.67279 17.7556 7.56671 17.7333C7.43001 17.7045 7.33316 17.649 7.13944 17.5381C5.4349 16.562 0.750179 13.4959 0.750179 9.28022V5.1728C0.750179 4.48613 0.750179 4.14279 0.864595 3.84766C0.965669 3.58694 1.12991 3.35431 1.34313 3.16987C1.58449 2.96109 1.912 2.84054 2.56703 2.59943L7.25861 0.872537C7.44052 0.805579 7.53147 0.772101 7.62504 0.758829C7.70804 0.747057 7.79232 0.747057 7.87532 0.758829C7.96889 0.772101 8.05984 0.805579 8.24175 0.872537L12.9333 2.59943C13.5884 2.84054 13.9159 2.96109 14.1572 3.16987C14.3704 3.35431 14.5347 3.58694 14.6358 3.84766C14.7502 4.14279 14.7502 4.48613 14.7502 5.1728V9.28022Z" stroke="#11D677" stroke-width="1.5" stroke-linecap="round" stroke-linejoin="round"/>
</svg>
