<svg width="40" height="40" viewBox="0 0 40 40" fill="none" xmlns="http://www.w3.org/2000/svg">
<rect width="40" height="40" rx="20" fill="url(#paint0_linear_907_58)"/>
<path d="M17.375 19.6008L19.125 21.3185L23.0625 17.4536M27 20.0302C27 24.2459 22.3153 27.312 20.6107 28.2881C20.417 28.399 20.3202 28.4545 20.1835 28.4833C20.0774 28.5056 19.9226 28.5056 19.8165 28.4833C19.6798 28.4545 19.583 28.399 19.3893 28.2881C17.6847 27.312 13 24.2459 13 20.0302V15.9228C13 15.2361 13 14.8928 13.1144 14.5977C13.2155 14.3369 13.3797 14.1043 13.593 13.9199C13.8343 13.7111 14.1618 13.5905 14.8169 13.3494L19.5084 11.6225C19.6903 11.5556 19.7813 11.5221 19.8749 11.5088C19.9579 11.4971 20.0421 11.4971 20.1251 11.5088C20.2187 11.5221 20.3097 11.5556 20.4916 11.6225L25.1831 13.3494C25.8382 13.5905 26.1657 13.7111 26.407 13.9199C26.6203 14.1043 26.7845 14.3369 26.8856 14.5977C27 14.8928 27 15.2361 27 15.9228V20.0302Z" stroke="white" stroke-width="1.5" stroke-linecap="round" stroke-linejoin="round"/>
<defs>
<linearGradient id="paint0_linear_907_58" x1="20" y1="0" x2="20" y2="40" gradientUnits="userSpaceOnUse">
<stop stop-color="#10E887"/>
<stop offset="1" stop-color="#00825C"/>
</linearGradient>
</defs>
</svg>
