<svg width="64" height="64" viewBox="0 0 64 64" fill="none" xmlns="http://www.w3.org/2000/svg">
<path d="M32 42C37.5228 42 42 37.5228 42 32C42 26.4772 37.5228 22 32 22C26.4772 22 22 26.4772 22 32C22 37.5228 26.4772 42 32 42Z" stroke="#D7D8FF" stroke-width="3"/>
<path d="M32 36C34.2091 36 36 34.2091 36 32C36 29.7909 34.2091 28 32 28C29.7909 28 28 29.7909 28 32C28 34.2091 29.7909 36 32 36Z" fill="#D7D8FF"/>
<path d="M32 22V8" stroke="#D7D8FF" stroke-width="2.5"/>
<path d="M32 11C33.6569 11 35 9.65685 35 8C35 6.34315 33.6569 5 32 5C30.3431 5 29 6.34315 29 8C29 9.65685 30.3431 11 32 11Z" fill="#D7D8FF"/>
<path d="M41.7 26L52 16" stroke="#D7D8FF" stroke-width="2.5"/>
<path d="M52 19C53.6569 19 55 17.6569 55 16C55 14.3431 53.6569 13 52 13C50.3431 13 49 14.3431 49 16C49 17.6569 50.3431 19 52 19Z" fill="#D7D8FF"/>
<path d="M41.7 38L52 48" stroke="#D7D8FF" stroke-width="2.5"/>
<path d="M52 51C53.6569 51 55 49.6569 55 48C55 46.3431 53.6569 45 52 45C50.3431 45 49 46.3431 49 48C49 49.6569 50.3431 51 52 51Z" fill="#D7D8FF"/>
<path d="M32 42V56" stroke="#D7D8FF" stroke-width="2.5"/>
<path d="M32 59C33.6569 59 35 57.6569 35 56C35 54.3431 33.6569 53 32 53C30.3431 53 29 54.3431 29 56C29 57.6569 30.3431 59 32 59Z" fill="#D7D8FF"/>
<path d="M22.3 38L12 48" stroke="#D7D8FF" stroke-width="2.5"/>
<path d="M12 51C13.6569 51 15 49.6569 15 48C15 46.3431 13.6569 45 12 45C10.3431 45 9 46.3431 9 48C9 49.6569 10.3431 51 12 51Z" fill="#D7D8FF"/>
<path d="M22.3 26L12 16" stroke="#D7D8FF" stroke-width="2.5"/>
<path d="M12 19C13.6569 19 15 17.6569 15 16C15 14.3431 13.6569 13 12 13C10.3431 13 9 14.3431 9 16C9 17.6569 10.3431 19 12 19Z" fill="#D7D8FF"/>
</svg>
