<svg width="64" height="64" viewBox="0 0 64 64" fill="none" xmlns="http://www.w3.org/2000/svg">
<path d="M0 32C0 14.3269 14.3269 0 32 0C49.6731 0 64 14.3269 64 32C64 49.6731 49.6731 64 32 64C14.3269 64 0 49.6731 0 32Z" fill="url(#paint0_linear_908_14)"/>
<path d="M16 32H38.6667" stroke="white" stroke-width="2" stroke-linecap="round"/>
<path d="M34.6667 28L38.6667 32L34.6667 36" stroke="white" stroke-width="2" stroke-linecap="round" stroke-linejoin="round"/>
<path opacity="0.6" d="M16 24H38.6667" stroke="white" stroke-width="2" stroke-linecap="round"/>
<path opacity="0.6" d="M40 25.6667C40.9205 25.6667 41.6667 24.9205 41.6667 24C41.6667 23.0795 40.9205 22.3333 40 22.3333C39.0795 22.3333 38.3333 23.0795 38.3333 24C38.3333 24.9205 39.0795 25.6667 40 25.6667Z" fill="white"/>
<path opacity="0.6" d="M16 40H38.6667" stroke="white" stroke-width="2" stroke-linecap="round"/>
<path opacity="0.6" d="M40 41.6667C40.9205 41.6667 41.6667 40.9205 41.6667 40C41.6667 39.0795 40.9205 38.3333 40 38.3333C39.0795 38.3333 38.3333 39.0795 38.3333 40C38.3333 40.9205 39.0795 41.6667 40 41.6667Z" fill="white"/>
<path opacity="0.6" d="M24 25.3334C24.7364 25.3334 25.3333 24.7364 25.3333 24C25.3333 23.2636 24.7364 22.6667 24 22.6667C23.2636 22.6667 22.6667 23.2636 22.6667 24C22.6667 24.7364 23.2636 25.3334 24 25.3334Z" fill="white"/>
<path opacity="0.6" d="M32 25.3334C32.7364 25.3334 33.3333 24.7364 33.3333 24C33.3333 23.2636 32.7364 22.6667 32 22.6667C31.2636 22.6667 30.6667 23.2636 30.6667 24C30.6667 24.7364 31.2636 25.3334 32 25.3334Z" fill="white"/>
<path opacity="0.6" d="M24 41.3334C24.7364 41.3334 25.3333 40.7364 25.3333 40C25.3333 39.2636 24.7364 38.6667 24 38.6667C23.2636 38.6667 22.6667 39.2636 22.6667 40C22.6667 40.7364 23.2636 41.3334 24 41.3334Z" fill="white"/>
<path opacity="0.6" d="M32 41.3334C32.7364 41.3334 33.3333 40.7364 33.3333 40C33.3333 39.2636 32.7364 38.6667 32 38.6667C31.2636 38.6667 30.6667 39.2636 30.6667 40C30.6667 40.7364 31.2636 41.3334 32 41.3334Z" fill="white"/>
<path d="M44 36C46.2091 36 48 34.2091 48 32C48 29.7909 46.2091 28 44 28C41.7909 28 40 29.7909 40 32C40 34.2091 41.7909 36 44 36Z" stroke="white" stroke-width="2"/>
<path d="M44 34C45.1046 34 46 33.1046 46 32C46 30.8954 45.1046 30 44 30C42.8954 30 42 30.8954 42 32C42 33.1046 42.8954 34 44 34Z" fill="white"/>
<defs>
<linearGradient id="paint0_linear_908_14" x1="32" y1="0" x2="32" y2="64" gradientUnits="userSpaceOnUse">
<stop stop-color="#10E887"/>
<stop offset="1" stop-color="#00825C"/>
</linearGradient>
</defs>
</svg>
