<svg width="40" height="40" viewBox="0 0 40 40" fill="none" xmlns="http://www.w3.org/2000/svg">
<rect width="40" height="40" rx="20" fill="url(#paint0_linear_1243_41)"/>
<g clip-path="url(#clip0_1243_41)">
<path d="M10.1111 11.3253H21.2222C21.6937 11.3253 22.1459 11.5081 22.4793 11.8335C22.8127 12.1588 23 12.6001 23 13.0602V20C23 20.4601 22.8127 20.9014 22.4793 21.2268C22.1459 21.5522 21.6937 21.7349 21.2222 21.7349H13.2222L10.5556 24.3373V21.7349H10.1111C9.63961 21.7349 9.18743 21.5522 8.85403 21.2268C8.52063 20.9014 8.33333 20.4601 8.33333 20V13.0602C8.33333 12.6001 8.52063 12.1588 8.85403 11.8335C9.18743 11.5081 9.63961 11.3253 10.1111 11.3253Z" fill="#0ED680" stroke="white" stroke-linecap="round" stroke-linejoin="round"/>
<path d="M17.0794 14.8485L17.6068 15.0049C17.3264 15.7997 16.9659 16.4859 16.5253 17.0635C16.0892 17.6412 15.5641 18.1276 14.9499 18.5228C14.3402 18.918 13.6304 19.2438 12.8204 19.5C12.8026 19.4566 12.7737 19.4066 12.7336 19.3502C12.698 19.2937 12.658 19.2351 12.6135 19.1743C12.5734 19.1135 12.5356 19.0657 12.5 19.0309C13.2922 18.8051 13.9842 18.5098 14.5761 18.145C15.168 17.7758 15.6709 17.3219 16.0848 16.7834C16.4986 16.2405 16.8302 15.5956 17.0794 14.8485ZM14.042 14.8876C14.2868 15.5825 14.6161 16.2079 15.03 16.7638C15.4484 17.3154 15.9601 17.7823 16.5654 18.1645C17.1706 18.5467 17.876 18.8312 18.6815 19.0179C18.6415 19.0527 18.597 19.0983 18.548 19.1547C18.5035 19.2155 18.459 19.2763 18.4145 19.3371C18.3745 19.3979 18.3411 19.4501 18.3144 19.4935C17.4911 19.285 16.7723 18.9767 16.1582 18.5684C15.5485 18.1558 15.03 17.6542 14.6028 17.0635C14.1756 16.4685 13.824 15.791 13.5481 15.0309L14.042 14.8876ZM12.5734 14.6075H18.6081V15.0831H12.5734V14.6075ZM15.3104 13.5H15.8244V14.8941H15.3104V13.5Z" fill="white"/>
<path d="M18.5556 17H29.2222C29.6348 17 30.0304 17.1599 30.3221 17.4446C30.6139 17.7293 30.7778 18.1155 30.7778 18.5181V24.5904C30.7778 24.993 30.6139 25.3791 30.3221 25.6637C30.0304 25.9485 29.6348 26.1084 29.2222 26.1084H28.7778V28.2771L26.5556 26.1084H18.5556C18.143 26.1084 17.7473 25.9485 17.4556 25.6637C17.1639 25.3791 17 24.993 17 24.5904V18.5181C17 18.1155 17.1639 17.7293 17.4556 17.4446C17.7473 17.1599 18.143 17 18.5556 17Z" fill="#09B371" stroke="white" stroke-linecap="round" stroke-linejoin="round"/>
<path d="M24.8563 21.951L24.0057 19.742L23.1019 21.951H24.8563ZM23.6091 19H24.4672L26.5 24H25.6686L25.1004 22.5024H22.8845L22.278 24H21.5L23.6091 19Z" fill="white"/>
</g>
<defs>
<linearGradient id="paint0_linear_1243_41" x1="20" y1="0" x2="20" y2="40" gradientUnits="userSpaceOnUse">
<stop stop-color="#10E887"/>
<stop offset="1" stop-color="#00825C"/>
</linearGradient>
<clipPath id="clip0_1243_41">
<rect width="24" height="18" fill="white" transform="translate(8 11)"/>
</clipPath>
</defs>
</svg>
